<svg version="1.1" xmlns="http://www.w3.org/2000/svg" xmlns:xlink="http://www.w3.org/1999/xlink" width="707"
     height="645">
    <defs/>
    <g>
        <g transform="translate(-282,-422) scale(1,1)">
            <path fill="#C0C0C0" stroke="none"
                  d="M 533 448.5 C 533 443.2532944 537.2532944 439 542.5 439 C 547.7467056 439 552 443.2532944 552 448.5 C 552 453.7467056 547.7467056 458 542.5 458 C 537.2532944 458 533 453.7467056 533 448.5 Z"
                  opacity="0.2"/>
        </g>
        <g transform="translate(-282,-422) scale(1,1)">
            <path fill="#000000" stroke="none"
                  d="M 526 441.5 C 526 436.2532944 530.2532944 432 535.5 432 C 540.7467056 432 545 436.2532944 545 441.5 C 545 446.7467056 540.7467056 451 535.5 451 C 530.2532944 451 526 446.7467056 526 441.5 Z"/>
        </g>
        <g transform="translate(-282,-422) scale(1,1)">
            <path fill="#C0C0C0" stroke="none"
                  d="M 482 511 L 603 511 Q 613 511 613 521 L 613 541 Q 613 551 603 551 L 482 551 Q 472 551 472 541 L 472 521 Q 472 511 482 511 Z"
                  opacity="0.2"/>
        </g>
        <g transform="translate(-282,-422) scale(1,1)">
            <path fill="#ffffff" stroke="none"
                  d="M 475 504 L 596 504 Q 606 504 606 514 L 606 534 Q 606 544 596 544 L 475 544 Q 465 544 465 534 L 465 514 Q 465 504 475 504 Z"/>
        </g>
        <g transform="translate(-282,-422) scale(1,1)">
            <path fill="none" stroke="#000000"
                  d="M 475 504 L 596 504 Q 606 504 606 514 L 606 534 Q 606 544 596 544 L 475 544 Q 465 544 465 534 L 465 514 Q 465 504 475 504 Z"
                  stroke-miterlimit="10"/>
        </g>
        <g transform="translate(-282,-422) scale(1,1)">
            <g>
                <path fill="none" stroke="none"/>
                <text fill="#000000" stroke="none" font-family="Arial" font-size="13px" font-style="normal"
                      font-weight="bold" text-decoration="none" x="474.083251953125" y="523.5">Check TJ datasource
                </text>
            </g>
        </g>
        <g transform="translate(-282,-422) scale(1,1)">
            <path fill="none" stroke="#000000" d="M 535 452 L 535 503" stroke-miterlimit="10"/>
        </g>
        <g transform="translate(-282,-422) scale(1,1)">
            <path fill="none" stroke="#000000"
                  d="M 530.790482243984 492.83732514237585 L 535 503 L 539.209517756016 492.83732514237585"
                  stroke-miterlimit="10"/>
        </g>
        <g transform="translate(-282,-422) scale(1,1)">
            <path fill="#C0C0C0" stroke="none" d="M 531 616.5 L 542.5 607 L 553 616.5 L 542.5 625 L 531 616.5"
                  opacity="0.2"/>
        </g>
        <g transform="translate(-282,-422) scale(1,1)">
            <path fill="#ffffff" stroke="none" d="M 524 609 L 535 600 L 546 609 L 535 618 L 524 609"/>
        </g>
        <g transform="translate(-282,-422) scale(1,1)">
            <path fill="none" stroke="#000000" d="M 524 609 L 535 600 L 546 609 L 535 618 L 524 609 L 524 609"
                  stroke-miterlimit="10"/>
        </g>
        <g transform="translate(-282,-422) scale(1,1)">
            <path fill="none" stroke="#000000" d="M 535 545 L 535 599" stroke-miterlimit="10"/>
        </g>
        <g transform="translate(-282,-422) scale(1,1)">
            <path fill="none" stroke="#000000"
                  d="M 530.790482243984 588.8373251423759 L 535 599 L 539.209517756016 588.8373251423759"
                  stroke-miterlimit="10"/>
        </g>
        <g transform="translate(-282,-422) scale(1,1)">
            <path fill="#C0C0C0" stroke="none"
                  d="M 480 711 L 604 711 Q 614 711 614 721 L 614 780 Q 614 790 604 790 L 480 790 Q 470 790 470 780 L 470 721 Q 470 711 480 711 Z"
                  opacity="0.2"/>
        </g>
        <g transform="translate(-282,-422) scale(1,1)">
            <path fill="#ffffff" stroke="none"
                  d="M 473 704 L 597 704 Q 607 704 607 714 L 607 773 Q 607 783 597 783 L 473 783 Q 463 783 463 773 L 463 714 Q 463 704 473 704 Z"/>
        </g>
        <g transform="translate(-282,-422) scale(1,1)">
            <path fill="none" stroke="#000000"
                  d="M 473 704 L 597 704 Q 607 704 607 714 L 607 773 Q 607 783 597 783 L 473 783 Q 463 783 463 773 L 463 714 Q 463 704 473 704 Z"
                  stroke-miterlimit="10"/>
        </g>
        <g transform="translate(-282,-422) scale(1,1)">
            <g>
                <path fill="none" stroke="none"/>
                <text fill="#000000" stroke="none" font-family="Arial" font-size="13px" font-style="normal"
                      font-weight="bold" text-decoration="none" x="487.319580078125" y="723.5">Check TJ record
                </text>
                <text fill="#000000" stroke="none" font-family="Arial" font-size="13px" font-style="normal"
                      font-weight="bold" text-decoration="none" x="493.083251953125" y="736.5">against Plan S
                </text>
                <text fill="#000000" stroke="none" font-family="Arial" font-size="13px" font-style="normal"
                      font-weight="bold" text-decoration="none" x="511.87548828125" y="749.5">General
                </text>
                <text fill="#000000" stroke="none" font-family="Arial" font-size="13px" font-style="normal"
                      font-weight="bold" text-decoration="none" x="494.536865234375" y="762.5">Requirements
                </text>
            </g>
        </g>
        <g transform="translate(-282,-422) scale(1,1)">
            <path fill="none" stroke="#000000" d="M 535 619 L 535 703" stroke-miterlimit="10"/>
        </g>
        <g transform="translate(-282,-422) scale(1,1)">
            <path fill="none" stroke="#000000"
                  d="M 530.790482243984 692.8373251423759 L 535 703 L 539.209517756016 692.8373251423759"
                  stroke-miterlimit="10"/>
        </g>
        <g transform="translate(-282,-422) scale(1,1)">
            <g>
                <path fill="none" stroke="none"/>
                <text fill="#000000" stroke="none" font-family="Arial" font-size="13px" font-style="normal"
                      font-weight="normal" text-decoration="none" x="551.5" y="636.5">[in TJ datasource]
                </text>
            </g>
        </g>
        <g transform="translate(-282,-422) scale(1,1)">
            <path fill="#C0C0C0" stroke="none"
                  d="M 761 935 L 844 935 Q 854 935 854 945 L 854 965 Q 854 975 844 975 L 761 975 Q 751 975 751 965 L 751 945 Q 751 935 761 935 Z"
                  opacity="0.2"/>
        </g>
        <g transform="translate(-282,-422) scale(1,1)">
            <path fill="#ffffff" stroke="none"
                  d="M 754 928 L 837 928 Q 847 928 847 938 L 847 958 Q 847 968 837 968 L 754 968 Q 744 968 744 958 L 744 938 Q 744 928 754 928 Z"/>
        </g>
        <g transform="translate(-282,-422) scale(1,1)">
            <path fill="none" stroke="#000000"
                  d="M 754 928 L 837 928 Q 847 928 847 938 L 847 958 Q 847 968 837 968 L 754 968 Q 744 968 744 958 L 744 938 Q 744 928 754 928 Z"
                  stroke-miterlimit="10"/>
        </g>
        <g transform="translate(-282,-422) scale(1,1)">
            <g>
                <path fill="none" stroke="none"/>
                <text fill="#000000" stroke="none" font-family="Arial" font-size="13px" font-style="normal"
                      font-weight="bold" text-decoration="none" x="752.50732421875" y="947.5">Non Compliant
                </text>
            </g>
        </g>
        <g transform="translate(-282,-422) scale(1,1)">
            <path fill="none" stroke="#000000" d="M 547 609 L 800 608 L 795 927" stroke-miterlimit="10"/>
        </g>
        <g transform="translate(-282,-422) scale(1,1)">
            <path fill="none" stroke="#000000"
                  d="M 790.9502692441475 916.7726014644435 L 795 927 L 799.3682707789463 916.9045450621677"
                  stroke-miterlimit="10"/>
        </g>
        <g transform="translate(-282,-422) scale(1,1)">
            <g>
                <path fill="none" stroke="none"/>
                <text fill="#000000" stroke="none" font-family="Arial" font-size="13px" font-style="normal"
                      font-weight="normal" text-decoration="none" x="671.5" y="594.5">[not in TJ datasource]
                </text>
            </g>
        </g>
        <g transform="translate(-282,-422) scale(1,1)">
            <path fill="#C0C0C0" stroke="none" d="M 531 856.5 L 542.5 847 L 553 856.5 L 542.5 865 L 531 856.5"
                  opacity="0.2"/>
        </g>
        <g transform="translate(-282,-422) scale(1,1)">
            <path fill="#ffffff" stroke="none" d="M 524 849 L 535 840 L 546 849 L 535 858 L 524 849"/>
        </g>
        <g transform="translate(-282,-422) scale(1,1)">
            <path fill="none" stroke="#000000" d="M 524 849 L 535 840 L 546 849 L 535 858 L 524 849 L 524 849"
                  stroke-miterlimit="10"/>
        </g>
        <g transform="translate(-282,-422) scale(1,1)">
            <path fill="none" stroke="#000000" d="M 535 784 L 535 839" stroke-miterlimit="10"/>
        </g>
        <g transform="translate(-282,-422) scale(1,1)">
            <path fill="none" stroke="#000000"
                  d="M 530.790482243984 828.8373251423759 L 535 839 L 539.209517756016 828.8373251423759"
                  stroke-miterlimit="10"/>
        </g>
        <g transform="translate(-282,-422) scale(1,1)">
            <path fill="#C0C0C0" stroke="none"
                  d="M 515 935 L 569 935 Q 579 935 579 945 L 579 965 Q 579 975 569 975 L 515 975 Q 505 975 505 965 L 505 945 Q 505 935 515 935 Z"
                  opacity="0.2"/>
        </g>
        <g transform="translate(-282,-422) scale(1,1)">
            <path fill="#ffffff" stroke="none"
                  d="M 508 928 L 562 928 Q 572 928 572 938 L 572 958 Q 572 968 562 968 L 508 968 Q 498 968 498 958 L 498 938 Q 498 928 508 928 Z"/>
        </g>
        <g transform="translate(-282,-422) scale(1,1)">
            <path fill="none" stroke="#000000"
                  d="M 508 928 L 562 928 Q 572 928 572 938 L 572 958 Q 572 968 562 968 L 508 968 Q 498 968 498 958 L 498 938 Q 498 928 508 928 Z"
                  stroke-miterlimit="10"/>
        </g>
        <g transform="translate(-282,-422) scale(1,1)">
            <g>
                <path fill="none" stroke="none"/>
                <text fill="#000000" stroke="none" font-family="Arial" font-size="13px" font-style="normal"
                      font-weight="bold" text-decoration="none" x="505.7373046875" y="947.5">Compliant
                </text>
            </g>
        </g>
        <g transform="translate(-282,-422) scale(1,1)">
            <path fill="none" stroke="#000000" d="M 535 859 L 535 927" stroke-miterlimit="10"/>
        </g>
        <g transform="translate(-282,-422) scale(1,1)">
            <path fill="none" stroke="#000000"
                  d="M 530.790482243984 916.8373251423759 L 535 927 L 539.209517756016 916.8373251423759"
                  stroke-miterlimit="10"/>
        </g>
        <g transform="translate(-282,-422) scale(1,1)">
            <g>
                <path fill="none" stroke="none"/>
                <text fill="#000000" stroke="none" font-family="Arial" font-size="13px" font-style="normal"
                      font-weight="normal" text-decoration="none" x="447.5" y="884.5">[properties meet requirements]
                </text>
            </g>
        </g>
        <g transform="translate(-282,-422) scale(1,1)">
            <path fill="none" stroke="#000000" d="M 547 849 L 672 848 L 769 927" stroke-miterlimit="10"/>
        </g>
        <g transform="translate(-282,-422) scale(1,1)">
            <path fill="none" stroke="#000000"
                  d="M 758.4617762981065 923.8462972224936 L 769 927 L 763.778355178552 917.3183459389087"
                  stroke-miterlimit="10"/>
        </g>
        <g transform="translate(-282,-422) scale(1,1)">
            <g>
                <path fill="none" stroke="none"/>
                <text fill="#000000" stroke="none" font-family="Arial" font-size="13px" font-style="normal"
                      font-weight="normal" text-decoration="none" x="550.610595703125" y="843.5">[properties do not meet
                    requirements]
                </text>
            </g>
        </g>
        <g transform="translate(-282,-422) scale(1,1)">
            <path fill="#C0C0C0" stroke="none"
                  d="M 530 1051.5 C 530 1044.59644 535.59644 1039 542.5 1039 C 549.40356 1039 555 1044.59644 555 1051.5 C 555 1058.40356 549.40356 1064 542.5 1064 C 535.59644 1064 530 1058.40356 530 1051.5 Z"
                  opacity="0.2"/>
        </g>
        <g transform="translate(-282,-422) scale(1,1)">
            <path fill="none" stroke="#000000"
                  d="M 523 1044.5 C 523 1037.59644 528.59644 1032 535.5 1032 C 542.40356 1032 548 1037.59644 548 1044.5 C 548 1051.40356 542.40356 1057 535.5 1057 C 528.59644 1057 523 1051.40356 523 1044.5 Z"
                  stroke-miterlimit="10"/>
        </g>
        <g transform="translate(-282,-422) scale(1,1)">
            <path fill="#000000" stroke="none"
                  d="M 528 1044.5 C 528 1040.357864 531.357864 1037 535.5 1037 C 539.642136 1037 543 1040.357864 543 1044.5 C 543 1048.642136 539.642136 1052 535.5 1052 C 531.357864 1052 528 1048.642136 528 1044.5 Z"/>
        </g>
        <g transform="translate(-282,-422) scale(1,1)">
            <path fill="none" stroke="#000000" d="M 535 969 L 535 1031" stroke-miterlimit="10"/>
        </g>
        <g transform="translate(-282,-422) scale(1,1)">
            <path fill="none" stroke="#000000"
                  d="M 530.790482243984 1020.8373251423759 L 535 1031 L 539.209517756016 1020.8373251423759"
                  stroke-miterlimit="10"/>
        </g>
        <g transform="translate(-282,-422) scale(1,1)">
            <path fill="#C0C0C0" stroke="none"
                  d="M 790 1051.5 C 790 1044.59644 795.59644 1039 802.5 1039 C 809.40356 1039 815 1044.59644 815 1051.5 C 815 1058.40356 809.40356 1064 802.5 1064 C 795.59644 1064 790 1058.40356 790 1051.5 Z"
                  opacity="0.2"/>
        </g>
        <g transform="translate(-282,-422) scale(1,1)">
            <path fill="none" stroke="#000000"
                  d="M 783 1044.5 C 783 1037.59644 788.59644 1032 795.5 1032 C 802.40356 1032 808 1037.59644 808 1044.5 C 808 1051.40356 802.40356 1057 795.5 1057 C 788.59644 1057 783 1051.40356 783 1044.5 Z"
                  stroke-miterlimit="10"/>
        </g>
        <g transform="translate(-282,-422) scale(1,1)">
            <path fill="#000000" stroke="none"
                  d="M 788 1044.5 C 788 1040.357864 791.357864 1037 795.5 1037 C 799.642136 1037 803 1040.357864 803 1044.5 C 803 1048.642136 799.642136 1052 795.5 1052 C 791.357864 1052 788 1048.642136 788 1044.5 Z"/>
        </g>
        <g transform="translate(-282,-422) scale(1,1)">
            <path fill="none" stroke="#000000" d="M 795 969 L 795 1031" stroke-miterlimit="10"/>
        </g>
        <g transform="translate(-282,-422) scale(1,1)">
            <path fill="none" stroke="#000000"
                  d="M 790.790482243984 1020.8373251423759 L 795 1031 L 799.209517756016 1020.8373251423759"
                  stroke-miterlimit="10"/>
        </g>
        <g transform="translate(-282,-422) scale(1,1)">
            <path fill="#ffffff" stroke="none" d="M 880 736 L 968 736 L 978 746 L 978 784 L 880 784 L 880 736"/>
        </g>
        <g transform="translate(-282,-422) scale(1,1)">
            <path fill="none" stroke="#000000" d="M 880 736 L 968 736 L 978 746 L 978 784 L 880 784 L 880 736 L 880 736"
                  stroke-miterlimit="10"/>
        </g>
        <g transform="translate(-282,-422) scale(1,1)">
            <path fill="none" stroke="#000000" d="M 968 736 L 968 746 L 978 746 L 968 736" stroke-miterlimit="10"/>
        </g>
        <g transform="translate(-282,-422) scale(1,1)">
            <g>
                <path fill="none" stroke="none"/>
                <text fill="#000000" stroke="none" font-family="Arial" font-size="13px" font-style="normal"
                      font-weight="normal" text-decoration="none" x="885" y="754">TJ.NoTJ
                </text>
            </g>
        </g>
        <g transform="translate(-282,-422) scale(1,1)">
            <path fill="none" stroke="#000000" d="M 797 767 L 879 763" stroke-miterlimit="10" stroke-dasharray="3"/>
        </g>
        <g transform="translate(-282,-422) scale(1,1)">
            <path fill="#ffffff" stroke="none" d="M 292 632 L 380 632 L 390 642 L 390 680 L 292 680 L 292 632"/>
        </g>
        <g transform="translate(-282,-422) scale(1,1)">
            <path fill="none" stroke="#000000" d="M 292 632 L 380 632 L 390 642 L 390 680 L 292 680 L 292 632 L 292 632"
                  stroke-miterlimit="10"/>
        </g>
        <g transform="translate(-282,-422) scale(1,1)">
            <path fill="none" stroke="#000000" d="M 380 632 L 380 642 L 390 642 L 380 632" stroke-miterlimit="10"/>
        </g>
        <g transform="translate(-282,-422) scale(1,1)">
            <g>
                <path fill="none" stroke="none"/>
                <text fill="#000000" stroke="none" font-family="Arial" font-size="13px" font-style="normal"
                      font-weight="normal" text-decoration="none" x="297" y="650">TJ.Exists
                </text>
            </g>
        </g>
        <g transform="translate(-282,-422) scale(1,1)">
            <path fill="none" stroke="#000000" d="M 535 661 L 392 657" stroke-miterlimit="10" stroke-dasharray="3"/>
        </g>
        <g transform="translate(-282,-422) scale(1,1)">
            <path fill="#ffffff" stroke="none"
                  d="M 584 984 L 692.42626953125 984 L 702.42626953125 994 L 702.42626953125 1033 L 584 1033 L 584 984"/>
        </g>
        <g transform="translate(-282,-422) scale(1,1)">
            <path fill="none" stroke="#000000"
                  d="M 584 984 L 692.42626953125 984 L 702.42626953125 994 L 702.42626953125 1033 L 584 1033 L 584 984 L 584 984"
                  stroke-miterlimit="10"/>
        </g>
        <g transform="translate(-282,-422) scale(1,1)">
            <path fill="none" stroke="#000000"
                  d="M 692.42626953125 984 L 692.42626953125 994 L 702.42626953125 994 L 692.42626953125 984"
                  stroke-miterlimit="10"/>
        </g>
        <g transform="translate(-282,-422) scale(1,1)">
            <g>
                <path fill="none" stroke="none"/>
                <text fill="#000000" stroke="none" font-family="Arial" font-size="13px" font-style="normal"
                      font-weight="normal" text-decoration="none" x="589" y="1002">TJ.NonCompliant
                </text>
            </g>
        </g>
        <g transform="translate(-282,-422) scale(1,1)">
            <path fill="none" stroke="#000000" d="M 720 887 L 659 983" stroke-miterlimit="10" stroke-dasharray="3"/>
        </g>
        <g transform="translate(-282,-422) scale(1,1)">
            <path fill="#ffffff" stroke="none" d="M 292 872 L 380 872 L 390 882 L 390 920 L 292 920 L 292 872"/>
        </g>
        <g transform="translate(-282,-422) scale(1,1)">
            <path fill="none" stroke="#000000" d="M 292 872 L 380 872 L 390 882 L 390 920 L 292 920 L 292 872 L 292 872"
                  stroke-miterlimit="10"/>
        </g>
        <g transform="translate(-282,-422) scale(1,1)">
            <path fill="none" stroke="#000000" d="M 380 872 L 380 882 L 390 882 L 380 872" stroke-miterlimit="10"/>
        </g>
        <g transform="translate(-282,-422) scale(1,1)">
            <g>
                <path fill="none" stroke="none"/>
                <text fill="#000000" stroke="none" font-family="Arial" font-size="13px" font-style="normal"
                      font-weight="normal" text-decoration="none" x="297" y="890">TJ.Compliant
                </text>
            </g>
        </g>
        <g transform="translate(-282,-422) scale(1,1)">
            <path fill="none" stroke="#000000" d="M 535 893 L 392 895" stroke-miterlimit="10" stroke-dasharray="3"/>
        </g>
    </g>
</svg>