<svg version="1.1" xmlns="http://www.w3.org/2000/svg" xmlns:xlink="http://www.w3.org/1999/xlink" width="624"
     height="797">
    <defs/>
    <g>
        <g transform="translate(-181,-14) scale(1,1)">
            <path fill="#C0C0C0" stroke="none"
                  d="M 458 95 L 538 95 Q 548 95 548 105 L 548 125 Q 548 135 538 135 L 458 135 Q 448 135 448 125 L 448 105 Q 448 95 458 95 Z"
                  opacity="0.2"/>
        </g>
        <g transform="translate(-181,-14) scale(1,1)">
            <path fill="#ffffff" stroke="none"
                  d="M 451 88 L 531 88 Q 541 88 541 98 L 541 118 Q 541 128 531 128 L 451 128 Q 441 128 441 118 L 441 98 Q 441 88 451 88 Z"/>
        </g>
        <g transform="translate(-181,-14) scale(1,1)">
            <path fill="none" stroke="#000000"
                  d="M 451 88 L 531 88 Q 541 88 541 98 L 541 118 Q 541 128 531 128 L 451 128 Q 441 128 441 118 L 441 98 Q 441 88 451 88 Z"
                  stroke-miterlimit="10"/>
        </g>
        <g transform="translate(-181,-14) scale(1,1)">
            <g>
                <path fill="none" stroke="none"/>
                <text fill="#000000" stroke="none" font-family="Arial" font-size="13px" font-style="normal"
                      font-weight="bold" text-decoration="none" x="449.81005859375" y="107.5">Initial Request
                </text>
            </g>
        </g>
        <g transform="translate(-181,-14) scale(1,1)">
            <path fill="#C0C0C0" stroke="none"
                  d="M 424 183 L 572 183 Q 582 183 582 193 L 582 229 Q 582 239 572 239 L 424 239 Q 414 239 414 229 L 414 193 Q 414 183 424 183 Z"
                  opacity="0.2"/>
        </g>
        <g transform="translate(-181,-14) scale(1,1)">
            <path fill="#ffffff" stroke="none"
                  d="M 417 176 L 565 176 Q 575 176 575 186 L 575 222 Q 575 232 565 232 L 417 232 Q 407 232 407 222 L 407 186 Q 407 176 417 176 Z"/>
        </g>
        <g transform="translate(-181,-14) scale(1,1)">
            <path fill="none" stroke="#000000"
                  d="M 417 176 L 565 176 Q 575 176 575 186 L 575 222 Q 575 232 565 232 L 417 232 Q 407 232 407 222 L 407 186 Q 407 176 417 176 Z"
                  stroke-miterlimit="10"/>
        </g>
        <g transform="translate(-181,-14) scale(1,1)">
            <g>
                <path fill="none" stroke="none"/>
                <text fill="#000000" stroke="none" font-family="Arial" font-size="13px" font-style="normal"
                      font-weight="bold" text-decoration="none" x="422.36279296875" y="195.5">Filter Funder list to Plan
                </text>
                <text fill="#000000" stroke="none" font-family="Arial" font-size="13px" font-style="normal"
                      font-weight="bold" text-decoration="none" x="461.013671875" y="208.5">S Funders
                </text>
            </g>
        </g>
        <g transform="translate(-181,-14) scale(1,1)">
            <path fill="none" stroke="#000000" d="M 491 129 L 491 175" stroke-miterlimit="10"/>
        </g>
        <g transform="translate(-181,-14) scale(1,1)">
            <path fill="none" stroke="#000000"
                  d="M 486.790482243984 164.83732514237585 L 491 175 L 495.209517756016 164.83732514237585"
                  stroke-miterlimit="10"/>
        </g>
        <g transform="translate(-181,-14) scale(1,1)">
            <path fill="#C0C0C0" stroke="none" d="M 487 297.5 L 498.5 288 L 509 297.5 L 498.5 306 L 487 297.5"
                  opacity="0.2"/>
        </g>
        <g transform="translate(-181,-14) scale(1,1)">
            <path fill="#ffffff" stroke="none" d="M 480 290 L 491 281 L 502 290 L 491 299 L 480 290"/>
        </g>
        <g transform="translate(-181,-14) scale(1,1)">
            <path fill="none" stroke="#000000" d="M 480 290 L 491 281 L 502 290 L 491 299 L 480 290 L 480 290"
                  stroke-miterlimit="10"/>
        </g>
        <g transform="translate(-181,-14) scale(1,1)">
            <path fill="none" stroke="#000000" d="M 491 233 L 491 280" stroke-miterlimit="10"/>
        </g>
        <g transform="translate(-181,-14) scale(1,1)">
            <path fill="none" stroke="#000000"
                  d="M 486.790482243984 269.83732514237585 L 491 280 L 495.209517756016 269.83732514237585"
                  stroke-miterlimit="10"/>
        </g>
        <g transform="translate(-181,-14) scale(1,1)">
            <path fill="none" stroke="#000000" d="M 491 300 L 491 359" stroke-miterlimit="10"/>
        </g>
        <g transform="translate(-181,-14) scale(1,1)">
            <path fill="none" stroke="#000000"
                  d="M 486.790482243984 348.83732514237585 L 491 359 L 495.209517756016 348.83732514237585"
                  stroke-miterlimit="10"/>
        </g>
        <g transform="translate(-181,-14) scale(1,1)">
            <g>
                <path fill="none" stroke="none"/>
                <text fill="#000000" stroke="none" font-family="Arial" font-size="13px" font-style="normal"
                      font-weight="normal" text-decoration="none" x="428.5" y="334.5">[1 or more funders remain]
                </text>
            </g>
        </g>
        <g transform="translate(-181,-14) scale(1,1)">
            <path fill="#C0C0C0" stroke="none"
                  d="M 665 271 L 733 271 Q 743 271 743 281 L 743 314 Q 743 324 733 324 L 665 324 Q 655 324 655 314 L 655 281 Q 655 271 665 271 Z"
                  opacity="0.2"/>
        </g>
        <g transform="translate(-181,-14) scale(1,1)">
            <path fill="#ffffff" stroke="none"
                  d="M 658 264 L 726 264 Q 736 264 736 274 L 736 307 Q 736 317 726 317 L 658 317 Q 648 317 648 307 L 648 274 Q 648 264 658 264 Z"/>
        </g>
        <g transform="translate(-181,-14) scale(1,1)">
            <path fill="none" stroke="#000000"
                  d="M 658 264 L 726 264 Q 736 264 736 274 L 736 307 Q 736 317 726 317 L 658 317 Q 648 317 648 307 L 648 274 Q 648 264 658 264 Z"
                  stroke-miterlimit="10"/>
        </g>
        <g transform="translate(-181,-14) scale(1,1)">
            <g>
                <path fill="none" stroke="none"/>
                <text fill="#000000" stroke="none" font-family="Arial" font-size="13px" font-style="normal"
                      font-weight="bold" text-decoration="none" x="660.92822265625" y="283.5">Plan S Not
                </text>
                <text fill="#000000" stroke="none" font-family="Arial" font-size="13px" font-style="normal"
                      font-weight="bold" text-decoration="none" x="662.00732421875" y="296.5">Applicable
                </text>
            </g>
        </g>
        <g transform="translate(-181,-14) scale(1,1)">
            <path fill="none" stroke="#000000" d="M 503 290 L 647 290" stroke-miterlimit="10"/>
        </g>
        <g transform="translate(-181,-14) scale(1,1)">
            <path fill="none" stroke="#000000"
                  d="M 636.8373251423759 294.209517756016 L 647 290 L 636.8373251423758 285.790482243984"
                  stroke-miterlimit="10"/>
        </g>
        <g transform="translate(-181,-14) scale(1,1)">
            <g>
                <path fill="none" stroke="none"/>
                <text fill="#000000" stroke="none" font-family="Arial" font-size="13px" font-style="normal"
                      font-weight="normal" text-decoration="none" x="518.5" y="281.5">[no funders remain]
                </text>
            </g>
        </g>
        <g transform="translate(-181,-14) scale(1,1)">
            <path fill="#C0C0C0" stroke="none"
                  d="M 775 297.5 C 775 290.59644 780.59644 285 787.5 285 C 794.40356 285 800 290.59644 800 297.5 C 800 304.40356 794.40356 310 787.5 310 C 780.59644 310 775 304.40356 775 297.5 Z"
                  opacity="0.2"/>
        </g>
        <g transform="translate(-181,-14) scale(1,1)">
            <path fill="none" stroke="#000000"
                  d="M 768 290.5 C 768 283.59644 773.59644 278 780.5 278 C 787.40356 278 793 283.59644 793 290.5 C 793 297.40356 787.40356 303 780.5 303 C 773.59644 303 768 297.40356 768 290.5 Z"
                  stroke-miterlimit="10"/>
        </g>
        <g transform="translate(-181,-14) scale(1,1)">
            <path fill="#000000" stroke="none"
                  d="M 773 290.5 C 773 286.357864 776.357864 283 780.5 283 C 784.642136 283 788 286.357864 788 290.5 C 788 294.642136 784.642136 298 780.5 298 C 776.357864 298 773 294.642136 773 290.5 Z"/>
        </g>
        <g transform="translate(-181,-14) scale(1,1)">
            <path fill="none" stroke="#000000" d="M 737 290 L 767 290" stroke-miterlimit="10"/>
        </g>
        <g transform="translate(-181,-14) scale(1,1)">
            <path fill="none" stroke="#000000"
                  d="M 756.8373251423759 294.209517756016 L 767 290 L 756.8373251423758 285.790482243984"
                  stroke-miterlimit="10"/>
        </g>
        <g transform="translate(-181,-14) scale(1,1)">
            <path fill="#C0C0C0" stroke="none"
                  d="M 205 367 L 791 367 Q 794 367 794 370 L 794 369 Q 794 372 791 372 L 205 372 Q 202 372 202 369 L 202 370 Q 202 367 205 367 Z"
                  opacity="0.2"/>
        </g>
        <g transform="translate(-181,-14) scale(1,1)">
            <path fill="#000000" stroke="none"
                  d="M 198 360 L 784 360 Q 787 360 787 363 L 787 363 Q 787 366 784 366 L 198 366 Q 195 366 195 363 L 195 363 Q 195 360 198 360 Z"/>
        </g>
        <g transform="translate(-181,-14) scale(1,1)">
            <path fill="#C0C0C0" stroke="none"
                  d="M 209 493 L 288 493 Q 298 493 298 503 L 298 523 Q 298 533 288 533 L 209 533 Q 199 533 199 523 L 199 503 Q 199 493 209 493 Z"
                  opacity="0.2"/>
        </g>
        <g transform="translate(-181,-14) scale(1,1)">
            <path fill="#ffffff" stroke="none"
                  d="M 202 486 L 281 486 Q 291 486 291 496 L 291 516 Q 291 526 281 526 L 202 526 Q 192 526 192 516 L 192 496 Q 192 486 202 486 Z"/>
        </g>
        <g transform="translate(-181,-14) scale(1,1)">
            <path fill="none" stroke="#000000"
                  d="M 202 486 L 281 486 Q 291 486 291 496 L 291 516 Q 291 526 281 526 L 202 526 Q 192 526 192 516 L 192 496 Q 192 486 202 486 Z"
                  stroke-miterlimit="10"/>
        </g>
        <g transform="translate(-181,-14) scale(1,1)">
            <g>
                <path fill="none" stroke="none"/>
                <text fill="#000000" stroke="none" font-family="Arial" font-size="13px" font-style="normal"
                      font-weight="bold" text-decoration="none" x="199.59912109375" y="505.5">Full OA Check
                </text>
            </g>
        </g>
        <g transform="translate(-181,-14) scale(1,1)">
            <path fill="#C0C0C0" stroke="none"
                  d="M 396 487 L 480 487 Q 490 487 490 497 L 490 530 Q 490 540 480 540 L 396 540 Q 386 540 386 530 L 386 497 Q 386 487 396 487 Z"
                  opacity="0.2"/>
        </g>
        <g transform="translate(-181,-14) scale(1,1)">
            <path fill="#ffffff" stroke="none"
                  d="M 389 480 L 473 480 Q 483 480 483 490 L 483 523 Q 483 533 473 533 L 389 533 Q 379 533 379 523 L 379 490 Q 379 480 389 480 Z"/>
        </g>
        <g transform="translate(-181,-14) scale(1,1)">
            <path fill="none" stroke="#000000"
                  d="M 389 480 L 473 480 Q 483 480 483 490 L 483 523 Q 483 533 473 533 L 389 533 Q 379 533 379 523 L 379 490 Q 379 480 389 480 Z"
                  stroke-miterlimit="10"/>
        </g>
        <g transform="translate(-181,-14) scale(1,1)">
            <g>
                <path fill="none" stroke="none"/>
                <text fill="#000000" stroke="none" font-family="Arial" font-size="13px" font-style="normal"
                      font-weight="bold" text-decoration="none" x="391.260498046875" y="499.5">Self Archiving
                </text>
                <text fill="#000000" stroke="none" font-family="Arial" font-size="13px" font-style="normal"
                      font-weight="bold" text-decoration="none" x="412.575927734375" y="512.5">Check
                </text>
            </g>
        </g>
        <g transform="translate(-181,-14) scale(1,1)">
            <path fill="#C0C0C0" stroke="none"
                  d="M 588 493 L 637 493 Q 647 493 647 503 L 647 523 Q 647 533 637 533 L 588 533 Q 578 533 578 523 L 578 503 Q 578 493 588 493 Z"
                  opacity="0.2"/>
        </g>
        <g transform="translate(-181,-14) scale(1,1)">
            <path fill="#ffffff" stroke="none"
                  d="M 581 486 L 630 486 Q 640 486 640 496 L 640 516 Q 640 526 630 526 L 581 526 Q 571 526 571 516 L 571 496 Q 571 486 581 486 Z"/>
        </g>
        <g transform="translate(-181,-14) scale(1,1)">
            <path fill="none" stroke="#000000"
                  d="M 581 486 L 630 486 Q 640 486 640 496 L 640 516 Q 640 526 630 526 L 581 526 Q 571 526 571 516 L 571 496 Q 571 486 581 486 Z"
                  stroke-miterlimit="10"/>
        </g>
        <g transform="translate(-181,-14) scale(1,1)">
            <g>
                <path fill="none" stroke="none"/>
                <text fill="#000000" stroke="none" font-family="Arial" font-size="13px" font-style="normal"
                      font-weight="bold" text-decoration="none" x="577.446533203125" y="505.5">TA Check
                </text>
            </g>
        </g>
        <g transform="translate(-181,-14) scale(1,1)">
            <path fill="#C0C0C0" stroke="none"
                  d="M 745 493 L 792 493 Q 802 493 802 503 L 802 523 Q 802 533 792 533 L 745 533 Q 735 533 735 523 L 735 503 Q 735 493 745 493 Z"
                  opacity="0.2"/>
        </g>
        <g transform="translate(-181,-14) scale(1,1)">
            <path fill="#ffffff" stroke="none"
                  d="M 738 486 L 785 486 Q 795 486 795 496 L 795 516 Q 795 526 785 526 L 738 526 Q 728 526 728 516 L 728 496 Q 728 486 738 486 Z"/>
        </g>
        <g transform="translate(-181,-14) scale(1,1)">
            <path fill="none" stroke="#000000"
                  d="M 738 486 L 785 486 Q 795 486 795 496 L 795 516 Q 795 526 785 526 L 738 526 Q 728 526 728 516 L 728 496 Q 728 486 738 486 Z"
                  stroke-miterlimit="10"/>
        </g>
        <g transform="translate(-181,-14) scale(1,1)">
            <g>
                <path fill="none" stroke="none"/>
                <text fill="#000000" stroke="none" font-family="Arial" font-size="13px" font-style="normal"
                      font-weight="bold" text-decoration="none" x="734.049560546875" y="505.5">TJ Check
                </text>
            </g>
        </g>
        <g transform="translate(-181,-14) scale(1,1)">
            <path fill="none" stroke="#000000" d="M 484 366 L 277 485" stroke-miterlimit="10"/>
        </g>
        <g transform="translate(-181,-14) scale(1,1)">
            <path fill="none" stroke="#000000"
                  d="M 283.71255486932944 476.28555181745617 L 277 485 L 287.90853847136515 483.5844476630141"
                  stroke-miterlimit="10"/>
        </g>
        <g transform="translate(-181,-14) scale(1,1)">
            <path fill="none" stroke="#000000" d="M 489 366 L 442 479" stroke-miterlimit="10"/>
        </g>
        <g transform="translate(-181,-14) scale(1,1)">
            <path fill="none" stroke="#000000"
                  d="M 442.0160985225403 468.00001178011667 L 442 479 L 449.78954963770695 471.2332171112037"
                  stroke-miterlimit="10"/>
        </g>
        <g transform="translate(-181,-14) scale(1,1)">
            <path fill="none" stroke="#000000" d="M 494 366 L 588 485" stroke-miterlimit="10"/>
        </g>
        <g transform="translate(-181,-14) scale(1,1)">
            <path fill="none" stroke="#000000"
                  d="M 578.3973166857809 479.63451091075393 L 588 485 L 585.0038512303171 474.4159037915405"
                  stroke-miterlimit="10"/>
        </g>
        <g transform="translate(-181,-14) scale(1,1)">
            <path fill="none" stroke="#000000" d="M 499 366 L 727 488" stroke-miterlimit="10"/>
        </g>
        <g transform="translate(-181,-14) scale(1,1)">
            <path fill="none" stroke="#000000"
                  d="M 716.0534525131776 486.916903458254 L 727 488 L 720.0254869508356 479.493757132139"
                  stroke-miterlimit="10"/>
        </g>
        <g transform="translate(-181,-14) scale(1,1)">
            <path fill="#C0C0C0" stroke="none"
                  d="M 201 615 L 795 615 Q 798 615 798 618 L 798 617 Q 798 620 795 620 L 201 620 Q 198 620 198 617 L 198 618 Q 198 615 201 615 Z"
                  opacity="0.2"/>
        </g>
        <g transform="translate(-181,-14) scale(1,1)">
            <path fill="#000000" stroke="none"
                  d="M 194 608 L 788 608 Q 791 608 791 611 L 791 611 Q 791 614 788 614 L 194 614 Q 191 614 191 611 L 191 611 Q 191 608 194 608 Z"/>
        </g>
        <g transform="translate(-181,-14) scale(1,1)">
            <path fill="none" stroke="#000000" d="M 291 527 L 484 607" stroke-miterlimit="10"/>
        </g>
        <g transform="translate(-181,-14) scale(1,1)">
            <path fill="none" stroke="#000000"
                  d="M 473.0000003467748 606.9972379273296 L 484 607 L 476.2237787324702 599.2198725718393"
                  stroke-miterlimit="10"/>
        </g>
        <g transform="translate(-181,-14) scale(1,1)">
            <path fill="none" stroke="#000000" d="M 447 534 L 489 607" stroke-miterlimit="10"/>
        </g>
        <g transform="translate(-181,-14) scale(1,1)">
            <path fill="none" stroke="#000000"
                  d="M 480.2832156861764 600.2904790613428 L 489 607 L 487.5806504557924 596.0919549473172"
                  stroke-miterlimit="10"/>
        </g>
        <g transform="translate(-181,-14) scale(1,1)">
            <path fill="none" stroke="#000000" d="M 582 527 L 494 607" stroke-miterlimit="10"/>
        </g>
        <g transform="translate(-181,-14) scale(1,1)">
            <path fill="none" stroke="#000000"
                  d="M 498.68814230973317 597.0490542316979 L 494 607 L 504.3513984503659 603.2786359863939"
                  stroke-miterlimit="10"/>
        </g>
        <g transform="translate(-181,-14) scale(1,1)">
            <path fill="none" stroke="#000000" d="M 727 519 L 499 607" stroke-miterlimit="10"/>
        </g>
        <g transform="translate(-181,-14) scale(1,1)">
            <path fill="none" stroke="#000000"
                  d="M 506.96524983111186 599.4135123325763 L 499 607 L 509.9967390444476 607.2678252944007"
                  stroke-miterlimit="10"/>
        </g>
        <g transform="translate(-181,-14) scale(1,1)">
            <path fill="#C0C0C0" stroke="none"
                  d="M 446 687 L 551.314453125 687 Q 561.314453125 687 561.314453125 697 L 561.314453125 717 Q 561.314453125 727 551.314453125 727 L 446 727 Q 436 727 436 717 L 436 697 Q 436 687 446 687 Z"
                  opacity="0.2"/>
        </g>
        <g transform="translate(-181,-14) scale(1,1)">
            <path fill="#ffffff" stroke="none"
                  d="M 439 680 L 544.314453125 680 Q 554.314453125 680 554.314453125 690 L 554.314453125 710 Q 554.314453125 720 544.314453125 720 L 439 720 Q 429 720 429 710 L 429 690 Q 429 680 439 680 Z"/>
        </g>
        <g transform="translate(-181,-14) scale(1,1)">
            <path fill="none" stroke="#000000"
                  d="M 439 680 L 544.314453125 680 Q 554.314453125 680 554.314453125 690 L 554.314453125 710 Q 554.314453125 720 544.314453125 720 L 439 720 Q 429 720 429 710 L 429 690 Q 429 680 439 680 Z"
                  stroke-miterlimit="10"/>
        </g>
        <g transform="translate(-181,-14) scale(1,1)">
            <g>
                <path fill="none" stroke="none"/>
                <text fill="#000000" stroke="none" font-family="Arial" font-size="13px" font-style="normal"
                      font-weight="bold" text-decoration="none" x="437.09912109375" y="699.5">Collate Responses
                </text>
            </g>
        </g>
        <g transform="translate(-181,-14) scale(1,1)">
            <path fill="none" stroke="#000000" d="M 491 614 L 491 679" stroke-miterlimit="10"/>
        </g>
        <g transform="translate(-181,-14) scale(1,1)">
            <path fill="none" stroke="#000000"
                  d="M 486.790482243984 668.8373251423759 L 491 679 L 495.209517756016 668.8373251423759"
                  stroke-miterlimit="10"/>
        </g>
        <g transform="translate(-181,-14) scale(1,1)">
            <path fill="#C0C0C0" stroke="none"
                  d="M 486 795.5 C 486 788.59644 491.59644 783 498.5 783 C 505.40356 783 511 788.59644 511 795.5 C 511 802.40356 505.40356 808 498.5 808 C 491.59644 808 486 802.40356 486 795.5 Z"
                  opacity="0.2"/>
        </g>
        <g transform="translate(-181,-14) scale(1,1)">
            <path fill="none" stroke="#000000"
                  d="M 479 788.5 C 479 781.59644 484.59644 776 491.5 776 C 498.40356 776 504 781.59644 504 788.5 C 504 795.40356 498.40356 801 491.5 801 C 484.59644 801 479 795.40356 479 788.5 Z"
                  stroke-miterlimit="10"/>
        </g>
        <g transform="translate(-181,-14) scale(1,1)">
            <path fill="#000000" stroke="none"
                  d="M 484 788.5 C 484 784.357864 487.357864 781 491.5 781 C 495.642136 781 499 784.357864 499 788.5 C 499 792.642136 495.642136 796 491.5 796 C 487.357864 796 484 792.642136 484 788.5 Z"/>
        </g>
        <g transform="translate(-181,-14) scale(1,1)">
            <path fill="#C0C0C0" stroke="none"
                  d="M 489 40.5 C 489 35.2532944 493.2532944 31 498.5 31 C 503.7467056 31 508 35.2532944 508 40.5 C 508 45.7467056 503.7467056 50 498.5 50 C 493.2532944 50 489 45.7467056 489 40.5 Z"
                  opacity="0.2"/>
        </g>
        <g transform="translate(-181,-14) scale(1,1)">
            <path fill="#000000" stroke="none"
                  d="M 482 33.5 C 482 28.2532944 486.2532944 24 491.5 24 C 496.7467056 24 501 28.2532944 501 33.5 C 501 38.7467056 496.7467056 43 491.5 43 C 486.2532944 43 482 38.7467056 482 33.5 Z"/>
        </g>
        <g transform="translate(-181,-14) scale(1,1)">
            <path fill="none" stroke="#000000" d="M 491 44 L 491 87" stroke-miterlimit="10"/>
        </g>
        <g transform="translate(-181,-14) scale(1,1)">
            <path fill="none" stroke="#000000"
                  d="M 486.790482243984 76.83732514237585 L 491 87 L 495.209517756016 76.83732514237585"
                  stroke-miterlimit="10"/>
        </g>
        <g transform="translate(-181,-14) scale(1,1)">
            <path fill="none" stroke="#000000" d="M 491 721 L 491 775" stroke-miterlimit="10"/>
        </g>
        <g transform="translate(-181,-14) scale(1,1)">
            <path fill="none" stroke="#000000"
                  d="M 486.790482243984 764.8373251423759 L 491 775 L 495.209517756016 764.8373251423759"
                  stroke-miterlimit="10"/>
        </g>
    </g>
</svg>