<svg version="1.1" xmlns="http://www.w3.org/2000/svg" xmlns:xlink="http://www.w3.org/1999/xlink" width="821.8671875"
     height="685">
    <defs/>
    <g>
        <g transform="translate(-125,-30) scale(1,1)">
            <path fill="#C0C0C0" stroke="none"
                  d="M 712 103 L 803 103 Q 813 103 813 113 L 813 133 Q 813 143 803 143 L 712 143 Q 702 143 702 133 L 702 113 Q 702 103 712 103 Z"
                  opacity="0.2"/>
        </g>
        <g transform="translate(-125,-30) scale(1,1)">
            <path fill="#ffffff" stroke="none"
                  d="M 705 96 L 796 96 Q 806 96 806 106 L 806 126 Q 806 136 796 136 L 705 136 Q 695 136 695 126 L 695 106 Q 695 96 705 96 Z"/>
        </g>
        <g transform="translate(-125,-30) scale(1,1)">
            <path fill="none" stroke="#000000"
                  d="M 705 96 L 796 96 Q 806 96 806 106 L 806 126 Q 806 136 796 136 L 705 136 Q 695 136 695 126 L 695 106 Q 695 96 705 96 Z"
                  stroke-miterlimit="10"/>
        </g>
        <g transform="translate(-125,-30) scale(1,1)">
            <g>
                <path fill="none" stroke="none"/>
                <text fill="#000000" stroke="none" font-family="Arial" font-size="13px" font-style="normal"
                      font-weight="bold" text-decoration="none" x="703.168701171875" y="115.5">Lookup in DOAJ
                </text>
            </g>
        </g>
        <g transform="translate(-125,-30) scale(1,1)">
            <path fill="#C0C0C0" stroke="none" d="M 746 191.5 L 757.5 182 L 768 191.5 L 757.5 200 L 746 191.5"
                  opacity="0.2"/>
        </g>
        <g transform="translate(-125,-30) scale(1,1)">
            <path fill="#ffffff" stroke="none" d="M 739 184 L 750 175 L 761 184 L 750 193 L 739 184"/>
        </g>
        <g transform="translate(-125,-30) scale(1,1)">
            <path fill="none" stroke="#000000" d="M 739 184 L 750 175 L 761 184 L 750 193 L 739 184 L 739 184"
                  stroke-miterlimit="10"/>
        </g>
        <g transform="translate(-125,-30) scale(1,1)">
            <path fill="none" stroke="#000000" d="M 750 137 L 750 174" stroke-miterlimit="10"/>
        </g>
        <g transform="translate(-125,-30) scale(1,1)">
            <path fill="none" stroke="#000000"
                  d="M 745.790482243984 163.83732514237585 L 750 174 L 754.209517756016 163.83732514237585"
                  stroke-miterlimit="10"/>
        </g>
        <g transform="translate(-125,-30) scale(1,1)">
            <path fill="none" stroke="#000000" d="M 738 184 L 351 184" stroke-miterlimit="10"/>
        </g>
        <g transform="translate(-125,-30) scale(1,1)">
            <path fill="none" stroke="#000000"
                  d="M 361.16267485762415 179.790482243984 L 351 184 L 361.16267485762415 188.209517756016"
                  stroke-miterlimit="10"/>
        </g>
        <g transform="translate(-125,-30) scale(1,1)">
            <g>
                <path fill="none" stroke="none"/>
                <text fill="#000000" stroke="none" font-family="Arial" font-size="13px" font-style="normal"
                      font-weight="normal" text-decoration="none" x="455.080078125" y="204.5">[ISSN not in public DOAJ]
                </text>
            </g>
        </g>
        <g transform="translate(-125,-30) scale(1,1)">
            <path fill="#C0C0C0" stroke="none"
                  d="M 671 326 L 843 326 Q 853 326 853 336 L 853 382 Q 853 392 843 392 L 671 392 Q 661 392 661 382 L 661 336 Q 661 326 671 326 Z"
                  opacity="0.2"/>
        </g>
        <g transform="translate(-125,-30) scale(1,1)">
            <path fill="#ffffff" stroke="none"
                  d="M 664 319 L 836 319 Q 846 319 846 329 L 846 375 Q 846 385 836 385 L 664 385 Q 654 385 654 375 L 654 329 Q 654 319 664 319 Z"/>
        </g>
        <g transform="translate(-125,-30) scale(1,1)">
            <path fill="none" stroke="#000000"
                  d="M 664 319 L 836 319 Q 846 319 846 329 L 846 375 Q 846 385 836 385 L 664 385 Q 654 385 654 375 L 654 329 Q 654 319 664 319 Z"
                  stroke-miterlimit="10"/>
        </g>
        <g transform="translate(-125,-30) scale(1,1)">
            <g>
                <path fill="none" stroke="none"/>
                <text fill="#000000" stroke="none" font-family="Arial" font-size="13px" font-style="normal"
                      font-weight="bold" text-decoration="none" x="669.438720703125" y="338.5">Check DOAJ record against
                </text>
                <text fill="#000000" stroke="none" font-family="Arial" font-size="13px" font-style="normal"
                      font-weight="bold" text-decoration="none" x="705.918701171875" y="351.5">Plan S General
                </text>
                <text fill="#000000" stroke="none" font-family="Arial" font-size="13px" font-style="normal"
                      font-weight="bold" text-decoration="none" x="709.536865234375" y="364.5">Requirements
                </text>
            </g>
        </g>
        <g transform="translate(-125,-30) scale(1,1)">
            <path fill="none" stroke="#000000" d="M 750 194 L 750 318" stroke-miterlimit="10"/>
        </g>
        <g transform="translate(-125,-30) scale(1,1)">
            <path fill="none" stroke="#000000"
                  d="M 745.790482243984 307.83732514237585 L 750 318 L 754.209517756016 307.83732514237585"
                  stroke-miterlimit="10"/>
        </g>
        <g transform="translate(-125,-30) scale(1,1)">
            <g>
                <path fill="none" stroke="none"/>
                <text fill="#000000" stroke="none" font-family="Arial" font-size="13px" font-style="normal"
                      font-weight="normal" text-decoration="none" x="757.921875" y="283.5">[ISSN in public DOAJ]
                </text>
            </g>
        </g>
        <g transform="translate(-125,-30) scale(1,1)">
            <path fill="#C0C0C0" stroke="none" d="M 335 191.5 L 346.5 182 L 357 191.5 L 346.5 200 L 335 191.5"
                  opacity="0.2"/>
        </g>
        <g transform="translate(-125,-30) scale(1,1)">
            <path fill="#ffffff" stroke="none" d="M 328 184 L 339 175 L 350 184 L 339 193 L 328 184"/>
        </g>
        <g transform="translate(-125,-30) scale(1,1)">
            <path fill="none" stroke="#000000" d="M 328 184 L 339 175 L 350 184 L 339 193 L 328 184 L 328 184"
                  stroke-miterlimit="10"/>
        </g>
        <g transform="translate(-125,-30) scale(1,1)">
            <path fill="#C0C0C0" stroke="none"
                  d="M 305 438 L 388 438 Q 398 438 398 448 L 398 468 Q 398 478 388 478 L 305 478 Q 295 478 295 468 L 295 448 Q 295 438 305 438 Z"
                  opacity="0.2"/>
        </g>
        <g transform="translate(-125,-30) scale(1,1)">
            <path fill="#ffffff" stroke="none"
                  d="M 298 431 L 381 431 Q 391 431 391 441 L 391 461 Q 391 471 381 471 L 298 471 Q 288 471 288 461 L 288 441 Q 288 431 298 431 Z"/>
        </g>
        <g transform="translate(-125,-30) scale(1,1)">
            <path fill="none" stroke="#000000"
                  d="M 298 431 L 381 431 Q 391 431 391 441 L 391 461 Q 391 471 381 471 L 298 471 Q 288 471 288 461 L 288 441 Q 288 431 298 431 Z"
                  stroke-miterlimit="10"/>
        </g>
        <g transform="translate(-125,-30) scale(1,1)">
            <g>
                <path fill="none" stroke="none"/>
                <text fill="#000000" stroke="none" font-family="Arial" font-size="13px" font-style="normal"
                      font-weight="bold" text-decoration="none" x="296.50732421875" y="450.5">Non Compliant
                </text>
            </g>
        </g>
        <g transform="translate(-125,-30) scale(1,1)">
            <path fill="none" stroke="#000000" d="M 339 194 L 339 430" stroke-miterlimit="10"/>
        </g>
        <g transform="translate(-125,-30) scale(1,1)">
            <path fill="none" stroke="#000000"
                  d="M 334.790482243984 419.83732514237585 L 339 430 L 343.209517756016 419.83732514237585"
                  stroke-miterlimit="10"/>
        </g>
        <g transform="translate(-125,-30) scale(1,1)">
            <g>
                <path fill="none" stroke="none"/>
                <text fill="#000000" stroke="none" font-family="Arial" font-size="13px" font-style="normal"
                      font-weight="normal" text-decoration="none" x="135.4326171875" y="353.5">[ISSN not "in progress"
                    at DOAJ]
                </text>
            </g>
        </g>
        <g transform="translate(-125,-30) scale(1,1)">
            <path fill="#C0C0C0" stroke="none"
                  d="M 334 531.5 C 334 524.59644 339.59644 519 346.5 519 C 353.40356 519 359 524.59644 359 531.5 C 359 538.40356 353.40356 544 346.5 544 C 339.59644 544 334 538.40356 334 531.5 Z"
                  opacity="0.2"/>
        </g>
        <g transform="translate(-125,-30) scale(1,1)">
            <path fill="none" stroke="#000000"
                  d="M 327 524.5 C 327 517.59644 332.59644 512 339.5 512 C 346.40356 512 352 517.59644 352 524.5 C 352 531.40356 346.40356 537 339.5 537 C 332.59644 537 327 531.40356 327 524.5 Z"
                  stroke-miterlimit="10"/>
        </g>
        <g transform="translate(-125,-30) scale(1,1)">
            <path fill="#000000" stroke="none"
                  d="M 332 524.5 C 332 520.357864 335.357864 517 339.5 517 C 343.642136 517 347 520.357864 347 524.5 C 347 528.642136 343.642136 532 339.5 532 C 335.357864 532 332 528.642136 332 524.5 Z"/>
        </g>
        <g transform="translate(-125,-30) scale(1,1)">
            <path fill="none" stroke="#000000" d="M 339 472 L 339 511" stroke-miterlimit="10"/>
        </g>
        <g transform="translate(-125,-30) scale(1,1)">
            <path fill="none" stroke="#000000"
                  d="M 334.790482243984 500.83732514237585 L 339 511 L 343.209517756016 500.83732514237585"
                  stroke-miterlimit="10"/>
        </g>
        <g transform="translate(-125,-30) scale(1,1)">
            <path fill="none" stroke="#000000" d="M 350 194 L 493 318" stroke-miterlimit="10"/>
        </g>
        <g transform="translate(-125,-30) scale(1,1)">
            <path fill="none" stroke="#000000"
                  d="M 482.56416107349355 314.5224626673444 L 493 318 L 488.0797377574469 308.1617572979466"
                  stroke-miterlimit="10"/>
        </g>
        <g transform="translate(-125,-30) scale(1,1)">
            <g>
                <path fill="none" stroke="none"/>
                <text fill="#000000" stroke="none" font-family="Arial" font-size="13px" font-style="normal"
                      font-weight="normal" text-decoration="none" x="439.2744140625" y="268.5">[ISSN "in progress" at
                    DOAJ]
                </text>
            </g>
        </g>
        <g transform="translate(-125,-30) scale(1,1)">
            <path fill="#C0C0C0" stroke="none"
                  d="M 748 56.5 C 748 51.2532944 752.2532944 47 757.5 47 C 762.7467056 47 767 51.2532944 767 56.5 C 767 61.7467056 762.7467056 66 757.5 66 C 752.2532944 66 748 61.7467056 748 56.5 Z"
                  opacity="0.2"/>
        </g>
        <g transform="translate(-125,-30) scale(1,1)">
            <path fill="#000000" stroke="none"
                  d="M 741 49.5 C 741 44.2532944 745.2532944 40 750.5 40 C 755.7467056 40 760 44.2532944 760 49.5 C 760 54.7467056 755.7467056 59 750.5 59 C 745.2532944 59 741 54.7467056 741 49.5 Z"/>
        </g>
        <g transform="translate(-125,-30) scale(1,1)">
            <path fill="none" stroke="#000000" d="M 750 60 L 750 95" stroke-miterlimit="10"/>
        </g>
        <g transform="translate(-125,-30) scale(1,1)">
            <path fill="none" stroke="#000000"
                  d="M 745.790482243984 84.83732514237585 L 750 95 L 754.209517756016 84.83732514237585"
                  stroke-miterlimit="10"/>
        </g>
        <g transform="translate(-125,-30) scale(1,1)">
            <path fill="#C0C0C0" stroke="none" d="M 746 458.5 L 757.5 449 L 768 458.5 L 757.5 467 L 746 458.5"
                  opacity="0.2"/>
        </g>
        <g transform="translate(-125,-30) scale(1,1)">
            <path fill="#ffffff" stroke="none" d="M 739 451 L 750 442 L 761 451 L 750 460 L 739 451"/>
        </g>
        <g transform="translate(-125,-30) scale(1,1)">
            <path fill="none" stroke="#000000" d="M 739 451 L 750 442 L 761 451 L 750 460 L 739 451 L 739 451"
                  stroke-miterlimit="10"/>
        </g>
        <g transform="translate(-125,-30) scale(1,1)">
            <path fill="none" stroke="#000000" d="M 750 386 L 750 441" stroke-miterlimit="10"/>
        </g>
        <g transform="translate(-125,-30) scale(1,1)">
            <path fill="none" stroke="#000000"
                  d="M 745.790482243984 430.83732514237585 L 750 441 L 754.209517756016 430.83732514237585"
                  stroke-miterlimit="10"/>
        </g>
        <g transform="translate(-125,-30) scale(1,1)">
            <path fill="#C0C0C0" stroke="none"
                  d="M 512 574 L 560 574 Q 570 574 570 584 L 570 604 Q 570 614 560 614 L 512 614 Q 502 614 502 604 L 502 584 Q 502 574 512 574 Z"
                  opacity="0.2"/>
        </g>
        <g transform="translate(-125,-30) scale(1,1)">
            <path fill="#ffffff" stroke="none"
                  d="M 505 567 L 553 567 Q 563 567 563 577 L 563 597 Q 563 607 553 607 L 505 607 Q 495 607 495 597 L 495 577 Q 495 567 505 567 Z"/>
        </g>
        <g transform="translate(-125,-30) scale(1,1)">
            <path fill="none" stroke="#000000"
                  d="M 505 567 L 553 567 Q 563 567 563 577 L 563 597 Q 563 607 553 607 L 505 607 Q 495 607 495 597 L 495 577 Q 495 567 505 567 Z"
                  stroke-miterlimit="10"/>
        </g>
        <g transform="translate(-125,-30) scale(1,1)">
            <g>
                <path fill="none" stroke="none"/>
                <text fill="#000000" stroke="none" font-family="Arial" font-size="13px" font-style="normal"
                      font-weight="bold" text-decoration="none" x="501.90185546875" y="586.5">Unknown
                </text>
            </g>
        </g>
        <g transform="translate(-125,-30) scale(1,1)">
            <path fill="none" stroke="#000000" d="M 738 458 L 563 566" stroke-miterlimit="10"/>
        </g>
        <g transform="translate(-125,-30) scale(1,1)">
            <path fill="none" stroke="#000000"
                  d="M 569.4375683223406 557.0804868913602 L 563 566 L 573.8590964190803 564.2450000110772"
                  stroke-miterlimit="10"/>
        </g>
        <g transform="translate(-125,-30) scale(1,1)">
            <g>
                <path fill="none" stroke="none"/>
                <text fill="#000000" stroke="none" font-family="Arial" font-size="13px" font-style="normal"
                      font-weight="normal" text-decoration="none" x="558.6982421875" y="491.5">[some data missing]
                </text>
            </g>
        </g>
        <g transform="translate(-125,-30) scale(1,1)">
            <path fill="#C0C0C0" stroke="none"
                  d="M 524 699.5 C 524 692.59644 529.59644 687 536.5 687 C 543.40356 687 549 692.59644 549 699.5 C 549 706.40356 543.40356 712 536.5 712 C 529.59644 712 524 706.40356 524 699.5 Z"
                  opacity="0.2"/>
        </g>
        <g transform="translate(-125,-30) scale(1,1)">
            <path fill="none" stroke="#000000"
                  d="M 517 692.5 C 517 685.59644 522.59644 680 529.5 680 C 536.40356 680 542 685.59644 542 692.5 C 542 699.40356 536.40356 705 529.5 705 C 522.59644 705 517 699.40356 517 692.5 Z"
                  stroke-miterlimit="10"/>
        </g>
        <g transform="translate(-125,-30) scale(1,1)">
            <path fill="#000000" stroke="none"
                  d="M 522 692.5 C 522 688.357864 525.357864 685 529.5 685 C 533.642136 685 537 688.357864 537 692.5 C 537 696.642136 533.642136 700 529.5 700 C 525.357864 700 522 696.642136 522 692.5 Z"/>
        </g>
        <g transform="translate(-125,-30) scale(1,1)">
            <path fill="none" stroke="#000000" d="M 529 608 L 529 679" stroke-miterlimit="10"/>
        </g>
        <g transform="translate(-125,-30) scale(1,1)">
            <path fill="none" stroke="#000000"
                  d="M 524.790482243984 668.8373251423759 L 529 679 L 533.209517756016 668.8373251423759"
                  stroke-miterlimit="10"/>
        </g>
        <g transform="translate(-125,-30) scale(1,1)">
            <path fill="#C0C0C0" stroke="none"
                  d="M 730 574 L 784 574 Q 794 574 794 584 L 794 604 Q 794 614 784 614 L 730 614 Q 720 614 720 604 L 720 584 Q 720 574 730 574 Z"
                  opacity="0.2"/>
        </g>
        <g transform="translate(-125,-30) scale(1,1)">
            <path fill="#ffffff" stroke="none"
                  d="M 723 567 L 777 567 Q 787 567 787 577 L 787 597 Q 787 607 777 607 L 723 607 Q 713 607 713 597 L 713 577 Q 713 567 723 567 Z"/>
        </g>
        <g transform="translate(-125,-30) scale(1,1)">
            <path fill="none" stroke="#000000"
                  d="M 723 567 L 777 567 Q 787 567 787 577 L 787 597 Q 787 607 777 607 L 723 607 Q 713 607 713 597 L 713 577 Q 713 567 723 567 Z"
                  stroke-miterlimit="10"/>
        </g>
        <g transform="translate(-125,-30) scale(1,1)">
            <g>
                <path fill="none" stroke="none"/>
                <text fill="#000000" stroke="none" font-family="Arial" font-size="13px" font-style="normal"
                      font-weight="bold" text-decoration="none" x="720.7373046875" y="586.5">Compliant
                </text>
            </g>
        </g>
        <g transform="translate(-125,-30) scale(1,1)">
            <path fill="none" stroke="#000000" d="M 750 461 L 750 566" stroke-miterlimit="10"/>
        </g>
        <g transform="translate(-125,-30) scale(1,1)">
            <path fill="none" stroke="#000000"
                  d="M 745.790482243984 555.8373251423759 L 750 566 L 754.209517756016 555.8373251423759"
                  stroke-miterlimit="10"/>
        </g>
        <g transform="translate(-125,-30) scale(1,1)">
            <g>
                <path fill="none" stroke="none"/>
                <text fill="#000000" stroke="none" font-family="Arial" font-size="13px" font-style="normal"
                      font-weight="normal" text-decoration="none" x="758.5" y="548.5">[properties meet requirements]
                </text>
            </g>
        </g>
        <g transform="translate(-125,-30) scale(1,1)">
            <path fill="#C0C0C0" stroke="none"
                  d="M 745 699.5 C 745 692.59644 750.59644 687 757.5 687 C 764.40356 687 770 692.59644 770 699.5 C 770 706.40356 764.40356 712 757.5 712 C 750.59644 712 745 706.40356 745 699.5 Z"
                  opacity="0.2"/>
        </g>
        <g transform="translate(-125,-30) scale(1,1)">
            <path fill="none" stroke="#000000"
                  d="M 738 692.5 C 738 685.59644 743.59644 680 750.5 680 C 757.40356 680 763 685.59644 763 692.5 C 763 699.40356 757.40356 705 750.5 705 C 743.59644 705 738 699.40356 738 692.5 Z"
                  stroke-miterlimit="10"/>
        </g>
        <g transform="translate(-125,-30) scale(1,1)">
            <path fill="#000000" stroke="none"
                  d="M 743 692.5 C 743 688.357864 746.357864 685 750.5 685 C 754.642136 685 758 688.357864 758 692.5 C 758 696.642136 754.642136 700 750.5 700 C 746.357864 700 743 696.642136 743 692.5 Z"/>
        </g>
        <g transform="translate(-125,-30) scale(1,1)">
            <path fill="none" stroke="#000000" d="M 750 608 L 750 679" stroke-miterlimit="10"/>
        </g>
        <g transform="translate(-125,-30) scale(1,1)">
            <path fill="none" stroke="#000000"
                  d="M 745.790482243984 668.8373251423759 L 750 679 L 754.209517756016 668.8373251423759"
                  stroke-miterlimit="10"/>
        </g>
        <g transform="translate(-125,-30) scale(1,1)">
            <path fill="none" stroke="#000000" d="M 738 451 L 392 451" stroke-miterlimit="10"/>
        </g>
        <g transform="translate(-125,-30) scale(1,1)">
            <path fill="none" stroke="#000000"
                  d="M 402.16267485762415 446.790482243984 L 392 451 L 402.16267485762415 455.209517756016"
                  stroke-miterlimit="10"/>
        </g>
        <g transform="translate(-125,-30) scale(1,1)">
            <g>
                <path fill="none" stroke="none"/>
                <text fill="#000000" stroke="none" font-family="Arial" font-size="13px" font-style="normal"
                      font-weight="normal" text-decoration="none" x="447.610595703125" y="443.5">[properties do not meet
                    requirements]
                </text>
            </g>
        </g>
        <g transform="translate(-125,-30) scale(1,1)">
            <path fill="#C0C0C0" stroke="none"
                  d="M 481 326 L 597 326 Q 607 326 607 336 L 607 382 Q 607 392 597 392 L 481 392 Q 471 392 471 382 L 471 336 Q 471 326 481 326 Z"
                  opacity="0.2"/>
        </g>
        <g transform="translate(-125,-30) scale(1,1)">
            <path fill="#ffffff" stroke="none"
                  d="M 474 319 L 590 319 Q 600 319 600 329 L 600 375 Q 600 385 590 385 L 474 385 Q 464 385 464 375 L 464 329 Q 464 319 474 319 Z"/>
        </g>
        <g transform="translate(-125,-30) scale(1,1)">
            <path fill="none" stroke="#000000"
                  d="M 474 319 L 590 319 Q 600 319 600 329 L 600 375 Q 600 385 590 385 L 474 385 Q 464 385 464 375 L 464 329 Q 464 319 474 319 Z"
                  stroke-miterlimit="10"/>
        </g>
        <g transform="translate(-125,-30) scale(1,1)">
            <g>
                <path fill="none" stroke="none"/>
                <text fill="#000000" stroke="none" font-family="Arial" font-size="13px" font-style="normal"
                      font-weight="bold" text-decoration="none" x="494.06640625" y="338.5">Add DOAJ In
                </text>
                <text fill="#000000" stroke="none" font-family="Arial" font-size="13px" font-style="normal"
                      font-weight="bold" text-decoration="none" x="505.990478515625" y="351.5">Progress
                </text>
                <text fill="#000000" stroke="none" font-family="Arial" font-size="13px" font-style="normal"
                      font-weight="bold" text-decoration="none" x="496.23095703125" y="364.5">Qualification
                </text>
            </g>
        </g>
        <g transform="translate(-125,-30) scale(1,1)">
            <path fill="none" stroke="#000000" d="M 601 352 L 653 352" stroke-miterlimit="10"/>
        </g>
        <g transform="translate(-125,-30) scale(1,1)">
            <path fill="none" stroke="#000000"
                  d="M 642.8373251423759 356.209517756016 L 653 352 L 642.8373251423758 347.790482243984"
                  stroke-miterlimit="10"/>
        </g>
        <g transform="translate(-125,-30) scale(1,1)">
            <path fill="#ffffff" stroke="none"
                  d="M 440 56 L 557.08447265625 56 L 567.08447265625 66 L 567.08447265625 79 L 440 79 L 440 56"/>
        </g>
        <g transform="translate(-125,-30) scale(1,1)">
            <path fill="none" stroke="#000000"
                  d="M 440 56 L 557.08447265625 56 L 567.08447265625 66 L 567.08447265625 79 L 440 79 L 440 56 L 440 56"
                  stroke-miterlimit="10"/>
        </g>
        <g transform="translate(-125,-30) scale(1,1)">
            <path fill="none" stroke="#000000"
                  d="M 557.08447265625 56 L 557.08447265625 66 L 567.08447265625 66 L 557.08447265625 56"
                  stroke-miterlimit="10"/>
        </g>
        <g transform="translate(-125,-30) scale(1,1)">
            <g>
                <path fill="none" stroke="none"/>
                <text fill="#000000" stroke="none" font-family="Arial" font-size="13px" font-style="normal"
                      font-weight="normal" text-decoration="none" x="445" y="74">FullOA.NotInDOAJ
                </text>
            </g>
        </g>
        <g transform="translate(-125,-30) scale(1,1)">
            <path fill="none" stroke="#000000" d="M 544 184 L 508 81" stroke-miterlimit="10" stroke-dasharray="3"/>
        </g>
        <g transform="translate(-125,-30) scale(1,1)">
            <path fill="#ffffff" stroke="none"
                  d="M 152 224 L 321.103515625 224 L 331.103515625 234 L 331.103515625 247 L 152 247 L 152 224"/>
        </g>
        <g transform="translate(-125,-30) scale(1,1)">
            <path fill="none" stroke="#000000"
                  d="M 152 224 L 321.103515625 224 L 331.103515625 234 L 331.103515625 247 L 152 247 L 152 224 L 152 224"
                  stroke-miterlimit="10"/>
        </g>
        <g transform="translate(-125,-30) scale(1,1)">
            <path fill="none" stroke="#000000"
                  d="M 321.103515625 224 L 321.103515625 234 L 331.103515625 234 L 321.103515625 224"
                  stroke-miterlimit="10"/>
        </g>
        <g transform="translate(-125,-30) scale(1,1)">
            <g>
                <path fill="none" stroke="none"/>
                <text fill="#000000" stroke="none" font-family="Arial" font-size="13px" font-style="normal"
                      font-weight="normal" text-decoration="none" x="157" y="242">FullOA.NotInProgressDOAJ
                </text>
            </g>
        </g>
        <g transform="translate(-125,-30) scale(1,1)">
            <path fill="none" stroke="#000000" d="M 339 312 L 259 249" stroke-miterlimit="10" stroke-dasharray="3"/>
        </g>
        <g transform="translate(-125,-30) scale(1,1)">
            <path fill="#ffffff" stroke="none"
                  d="M 248 72 L 396.87353515625 72 L 406.87353515625 82 L 406.87353515625 95 L 248 95 L 248 72"/>
        </g>
        <g transform="translate(-125,-30) scale(1,1)">
            <path fill="none" stroke="#000000"
                  d="M 248 72 L 396.87353515625 72 L 406.87353515625 82 L 406.87353515625 95 L 248 95 L 248 72 L 248 72"
                  stroke-miterlimit="10"/>
        </g>
        <g transform="translate(-125,-30) scale(1,1)">
            <path fill="none" stroke="#000000"
                  d="M 396.87353515625 72 L 396.87353515625 82 L 406.87353515625 82 L 396.87353515625 72"
                  stroke-miterlimit="10"/>
        </g>
        <g transform="translate(-125,-30) scale(1,1)">
            <g>
                <path fill="none" stroke="none"/>
                <text fill="#000000" stroke="none" font-family="Arial" font-size="13px" font-style="normal"
                      font-weight="normal" text-decoration="none" x="253" y="90">FullOA.InProgressDOAJ
                </text>
            </g>
        </g>
        <g transform="translate(-125,-30) scale(1,1)">
            <path fill="none" stroke="#000000" d="M 421 256 L 334 97" stroke-miterlimit="10" stroke-dasharray="3"/>
        </g>
        <g transform="translate(-125,-30) scale(1,1)">
            <path fill="#ffffff" stroke="none"
                  d="M 824 184 L 920.8544921875 184 L 930.8544921875 194 L 930.8544921875 207 L 824 207 L 824 184"/>
        </g>
        <g transform="translate(-125,-30) scale(1,1)">
            <path fill="none" stroke="#000000"
                  d="M 824 184 L 920.8544921875 184 L 930.8544921875 194 L 930.8544921875 207 L 824 207 L 824 184 L 824 184"
                  stroke-miterlimit="10"/>
        </g>
        <g transform="translate(-125,-30) scale(1,1)">
            <path fill="none" stroke="#000000"
                  d="M 920.8544921875 184 L 920.8544921875 194 L 930.8544921875 194 L 920.8544921875 184"
                  stroke-miterlimit="10"/>
        </g>
        <g transform="translate(-125,-30) scale(1,1)">
            <g>
                <path fill="none" stroke="none"/>
                <text fill="#000000" stroke="none" font-family="Arial" font-size="13px" font-style="normal"
                      font-weight="normal" text-decoration="none" x="829" y="202">FullOA.InDOAJ
                </text>
            </g>
        </g>
        <g transform="translate(-125,-30) scale(1,1)">
            <path fill="none" stroke="#000000" d="M 750 256 L 849 209" stroke-miterlimit="10" stroke-dasharray="3"/>
        </g>
        <g transform="translate(-125,-30) scale(1,1)">
            <path fill="#ffffff" stroke="none"
                  d="M 816 448 L 925.8671875 448 L 935.8671875 458 L 935.8671875 471 L 816 471 L 816 448"/>
        </g>
        <g transform="translate(-125,-30) scale(1,1)">
            <path fill="none" stroke="#000000"
                  d="M 816 448 L 925.8671875 448 L 935.8671875 458 L 935.8671875 471 L 816 471 L 816 448 L 816 448"
                  stroke-miterlimit="10"/>
        </g>
        <g transform="translate(-125,-30) scale(1,1)">
            <path fill="none" stroke="#000000"
                  d="M 925.8671875 448 L 925.8671875 458 L 935.8671875 458 L 925.8671875 448" stroke-miterlimit="10"/>
        </g>
        <g transform="translate(-125,-30) scale(1,1)">
            <g>
                <path fill="none" stroke="none"/>
                <text fill="#000000" stroke="none" font-family="Arial" font-size="13px" font-style="normal"
                      font-weight="normal" text-decoration="none" x="821" y="466">FullOA.Compliant
                </text>
            </g>
        </g>
        <g transform="translate(-125,-30) scale(1,1)">
            <path fill="none" stroke="#000000" d="M 750 513 L 845 473" stroke-miterlimit="10" stroke-dasharray="3"/>
        </g>
        <g transform="translate(-125,-30) scale(1,1)">
            <path fill="#ffffff" stroke="none"
                  d="M 328 592 L 461.71533203125 592 L 471.71533203125 602 L 471.71533203125 615 L 328 615 L 328 592"/>
        </g>
        <g transform="translate(-125,-30) scale(1,1)">
            <path fill="none" stroke="#000000"
                  d="M 328 592 L 461.71533203125 592 L 471.71533203125 602 L 471.71533203125 615 L 328 615 L 328 592 L 328 592"
                  stroke-miterlimit="10"/>
        </g>
        <g transform="translate(-125,-30) scale(1,1)">
            <path fill="none" stroke="#000000"
                  d="M 461.71533203125 592 L 461.71533203125 602 L 471.71533203125 602 L 461.71533203125 592"
                  stroke-miterlimit="10"/>
        </g>
        <g transform="translate(-125,-30) scale(1,1)">
            <g>
                <path fill="none" stroke="none"/>
                <text fill="#000000" stroke="none" font-family="Arial" font-size="13px" font-style="normal"
                      font-weight="normal" text-decoration="none" x="333" y="610">FullOA.NonCompliant
                </text>
            </g>
        </g>
        <g transform="translate(-125,-30) scale(1,1)">
            <path fill="none" stroke="#000000" d="M 565 451 L 414 591" stroke-miterlimit="10" stroke-dasharray="3"/>
        </g>
        <g transform="translate(-125,-30) scale(1,1)">
            <path fill="#ffffff" stroke="none"
                  d="M 568 632 L 673.5380859375 632 L 683.5380859375 642 L 683.5380859375 655 L 568 655 L 568 632"/>
        </g>
        <g transform="translate(-125,-30) scale(1,1)">
            <path fill="none" stroke="#000000"
                  d="M 568 632 L 673.5380859375 632 L 683.5380859375 642 L 683.5380859375 655 L 568 655 L 568 632 L 568 632"
                  stroke-miterlimit="10"/>
        </g>
        <g transform="translate(-125,-30) scale(1,1)">
            <path fill="none" stroke="#000000"
                  d="M 673.5380859375 632 L 673.5380859375 642 L 683.5380859375 642 L 673.5380859375 632"
                  stroke-miterlimit="10"/>
        </g>
        <g transform="translate(-125,-30) scale(1,1)">
            <g>
                <path fill="none" stroke="none"/>
                <text fill="#000000" stroke="none" font-family="Arial" font-size="13px" font-style="normal"
                      font-weight="normal" text-decoration="none" x="573" y="650">FullOA.Unknown
                </text>
            </g>
        </g>
        <g transform="translate(-125,-30) scale(1,1)">
            <path fill="none" stroke="#000000" d="M 650 512 L 628 631" stroke-miterlimit="10" stroke-dasharray="3"/>
        </g>
    </g>
</svg>