<svg width="2200" height="802" viewBox="0 0 2200 802" fill="none" xmlns="http://www.w3.org/2000/svg" class="confetti">
  <style type="text/css">
    circle {
      animation: opacity .75s ease-in-out alternate 60;
    }

    ellipse {
      animation: opacity .85s ease-in-out alternate 60;
    }

    path {
      animation: opacity 1s ease-in-out alternate 60;
    }

    @keyframes opacity {
      from { fill: transparent; }
      to { fill: #fff; }
    }
  </style>
  <circle cx="16.5" cy="22.5" r="3.5" fill="white"/>
  <ellipse cx="1243" cy="201.5" rx="4" ry="3.5" fill="white"/>
  <ellipse cx="1968.5" cy="151" rx="3.5" ry="4" fill="white"/>
  <ellipse cx="994" cy="73.5" rx="4" ry="3.5" fill="white"/>
  <circle cx="1016.5" cy="215.5" r="3.5" fill="white"/>
  <circle cx="377.5" cy="477.5" r="3.5" fill="white"/>
  <circle cx="1998.5" cy="29.5" r="3.5" fill="white"/>
  <circle cx="918.5" cy="172.5" r="3.5" fill="white"/>
  <ellipse cx="1930" cy="3.5" rx="4" ry="3.5" fill="white"/>
  <circle cx="1566.5" cy="411.5" r="3.5" fill="white"/>
  <circle cx="564.5" cy="384.5" r="3.5" fill="white"/>
  <ellipse cx="1691" cy="537.5" rx="4" ry="3.5" fill="white"/>
  <circle cx="136.5" cy="163.5" r="3.5" fill="white"/>
  <ellipse cx="697.5" cy="118" rx="3.5" ry="4" fill="white"/>
  <circle cx="3.5" cy="75.5" r="3.5" fill="white"/>
  <circle cx="1363.5" cy="311.5" r="3.5" fill="white"/>
  <circle cx="1138.5" cy="424.5" r="3.5" fill="white"/>
  <circle cx="1553.5" cy="7.5" r="3.5" fill="white"/>
  <circle cx="198.5" cy="358.5" r="3.5" fill="white"/>
  <path fill-rule="evenodd" clip-rule="evenodd" d="M410.644 229.325C410.155 229.582 409.551 229.395 409.293 228.906L407.007 224.563L402.663 226.849C402.175 227.106 401.57 226.919 401.313 226.43C401.055 225.941 401.243 225.336 401.732 225.079L406.075 222.793L403.677 218.236C403.419 217.747 403.607 217.142 404.096 216.885C404.584 216.628 405.189 216.815 405.446 217.304L407.845 221.861L412.402 219.462C412.891 219.205 413.496 219.393 413.753 219.881C414.01 220.37 413.823 220.975 413.334 221.232L408.777 223.631L411.063 227.975C411.321 228.463 411.133 229.068 410.644 229.325Z" fill="white"/>
  <path fill-rule="evenodd" clip-rule="evenodd" d="M2114.7 514.491C2115.07 514.903 2115.03 515.535 2114.62 515.903L2110.95 519.168L2114.22 522.833C2114.59 523.245 2114.55 523.877 2114.14 524.245C2113.73 524.612 2113.09 524.576 2112.73 524.164L2109.46 520.499L2105.62 523.925C2105.2 524.293 2104.57 524.256 2104.2 523.844C2103.84 523.432 2103.87 522.799 2104.29 522.432L2108.13 519.006L2104.7 515.161C2104.34 514.749 2104.37 514.117 2104.78 513.749C2105.2 513.382 2105.83 513.418 2106.2 513.83L2109.62 517.675L2113.29 514.409C2113.7 514.042 2114.33 514.078 2114.7 514.491Z" fill="white"/>
  <path fill-rule="evenodd" clip-rule="evenodd" d="M456.788 79.1828C456.422 79.5967 455.79 79.6359 455.376 79.2703L451.697 76.021L448.448 79.7002C448.082 80.1141 447.45 80.1534 447.036 79.7878C446.622 79.4222 446.583 78.7902 446.949 78.3763L450.198 74.6971L446.338 71.288C445.924 70.9224 445.885 70.2905 446.251 69.8765C446.616 69.4626 447.248 69.4234 447.662 69.789L451.522 73.198L454.931 69.338C455.297 68.9241 455.929 68.8848 456.343 69.2504C456.757 69.616 456.796 70.248 456.43 70.6619L453.021 74.5219L456.7 77.7713C457.114 78.1369 457.153 78.7688 456.788 79.1828Z" fill="white"/>
  <path fill-rule="evenodd" clip-rule="evenodd" d="M365.345 596.246C365.657 595.79 366.279 595.673 366.735 595.984L370.787 598.754L373.557 594.702C373.869 594.246 374.491 594.129 374.947 594.44C375.403 594.752 375.52 595.374 375.208 595.83L372.439 599.883L376.69 602.789C377.146 603.1 377.263 603.723 376.952 604.179C376.64 604.635 376.018 604.752 375.562 604.44L371.31 601.534L368.404 605.786C368.093 606.242 367.47 606.359 367.014 606.047C366.558 605.735 366.441 605.113 366.753 604.657L369.659 600.405L365.606 597.636C365.15 597.324 365.033 596.702 365.345 596.246Z" fill="white"/>
  <path fill-rule="evenodd" clip-rule="evenodd" d="M1435.42 786.968C1435.97 787.004 1436.39 787.479 1436.35 788.03L1436.04 792.929L1440.94 793.244C1441.49 793.279 1441.91 793.755 1441.87 794.306C1441.84 794.857 1441.36 795.275 1440.81 795.24L1435.91 794.925L1435.58 800.064C1435.54 800.615 1435.07 801.033 1434.52 800.998C1433.97 800.963 1433.55 800.487 1433.58 799.936L1433.91 794.797L1428.78 794.467C1428.22 794.431 1427.81 793.956 1427.84 793.404C1427.88 792.853 1428.35 792.435 1428.9 792.471L1434.04 792.801L1434.36 787.902C1434.39 787.351 1434.87 786.933 1435.42 786.968Z" fill="white"/>
  <path fill-rule="evenodd" clip-rule="evenodd" d="M1053.18 497.048C1053.72 496.932 1054.26 497.277 1054.37 497.817L1055.4 502.617L1060.2 501.593C1060.74 501.478 1061.27 501.822 1061.38 502.363C1061.5 502.903 1061.15 503.434 1060.61 503.549L1055.81 504.573L1056.89 509.61C1057 510.15 1056.66 510.681 1056.12 510.797C1055.58 510.912 1055.05 510.567 1054.93 510.027L1053.86 504.991L1048.82 506.065C1048.28 506.181 1047.75 505.836 1047.63 505.296C1047.52 504.756 1047.86 504.225 1048.4 504.109L1053.44 503.035L1052.41 498.234C1052.3 497.694 1052.64 497.163 1053.18 497.048Z" fill="white"/>
  <path fill-rule="evenodd" clip-rule="evenodd" d="M599.893 404.996C600.438 405.085 600.808 405.599 600.72 406.144L599.93 410.989L604.775 411.778C605.32 411.867 605.69 412.381 605.601 412.926C605.512 413.471 604.999 413.841 604.454 413.752L599.609 412.963L598.781 418.046C598.692 418.591 598.178 418.961 597.633 418.872C597.088 418.783 596.718 418.269 596.807 417.724L597.635 412.641L592.552 411.813C592.007 411.725 591.637 411.211 591.726 410.666C591.815 410.12 592.328 409.751 592.874 409.839L597.956 410.667L598.746 405.823C598.834 405.278 599.348 404.908 599.893 404.996Z" fill="white"/>
  <path fill-rule="evenodd" clip-rule="evenodd" d="M1388 705.003C1387.6 705.379 1386.97 705.357 1386.59 704.953L1383.25 701.361L1379.65 704.707C1379.25 705.084 1378.62 705.061 1378.24 704.657C1377.86 704.253 1377.89 703.62 1378.29 703.244L1381.88 699.898L1378.37 696.13C1378 695.726 1378.02 695.093 1378.42 694.717C1378.83 694.34 1379.46 694.363 1379.84 694.767L1383.35 698.535L1387.11 695.024C1387.52 694.648 1388.15 694.67 1388.53 695.074C1388.9 695.478 1388.88 696.111 1388.48 696.488L1384.71 699.998L1388.05 703.59C1388.43 703.994 1388.41 704.626 1388 705.003Z" fill="white"/>
  <path fill-rule="evenodd" clip-rule="evenodd" d="M358.325 432.896C358.397 432.348 358.899 431.963 359.446 432.035L364.313 432.674L364.952 427.807C365.024 427.259 365.526 426.873 366.074 426.945C366.621 427.017 367.007 427.519 366.935 428.067L366.296 432.934L371.402 433.604C371.95 433.676 372.336 434.178 372.264 434.726C372.192 435.273 371.69 435.659 371.142 435.587L366.036 434.917L365.366 440.023C365.294 440.57 364.792 440.956 364.244 440.884C363.697 440.812 363.311 440.31 363.383 439.763L364.053 434.657L359.186 434.018C358.639 433.946 358.253 433.444 358.325 432.896Z" fill="white"/>
  <path fill-rule="evenodd" clip-rule="evenodd" d="M1243.48 147.084C1243.14 146.649 1243.21 146.021 1243.65 145.68L1247.51 142.647L1244.48 138.787C1244.13 138.353 1244.21 137.724 1244.64 137.383C1245.08 137.042 1245.71 137.117 1246.05 137.552L1249.08 141.411L1253.13 138.23C1253.56 137.889 1254.19 137.964 1254.53 138.398C1254.88 138.833 1254.8 139.461 1254.37 139.803L1250.32 142.984L1253.5 147.034C1253.84 147.468 1253.76 148.097 1253.33 148.438C1252.9 148.779 1252.27 148.704 1251.93 148.269L1248.74 144.22L1244.88 147.252C1244.45 147.593 1243.82 147.518 1243.48 147.084Z" fill="white"/>
  <path fill-rule="evenodd" clip-rule="evenodd" d="M1487.02 698.522C1487.46 698.848 1487.56 699.473 1487.24 699.919L1484.34 703.884L1488.31 706.778C1488.75 707.104 1488.85 707.729 1488.53 708.175C1488.2 708.622 1487.57 708.719 1487.13 708.394L1483.16 705.5L1480.13 709.659C1479.8 710.105 1479.18 710.203 1478.73 709.877C1478.28 709.552 1478.19 708.926 1478.51 708.48L1481.55 704.32L1477.39 701.284C1476.94 700.959 1476.84 700.333 1477.17 699.887C1477.5 699.441 1478.12 699.343 1478.57 699.669L1482.73 702.705L1485.62 698.74C1485.95 698.294 1486.57 698.196 1487.02 698.522Z" fill="white"/>
  <path fill-rule="evenodd" clip-rule="evenodd" d="M1831.42 256.478C1831.03 256.872 1830.4 256.878 1830.01 256.491L1826.51 253.051L1823.07 256.552C1822.68 256.946 1822.05 256.952 1821.65 256.565C1821.26 256.178 1821.25 255.545 1821.64 255.151L1825.08 251.649L1821.41 248.04C1821.01 247.653 1821.01 247.02 1821.39 246.626C1821.78 246.232 1822.41 246.226 1822.81 246.613L1826.48 250.223L1830.09 246.549C1830.48 246.155 1831.11 246.149 1831.5 246.536C1831.9 246.924 1831.9 247.557 1831.52 247.951L1827.91 251.624L1831.41 255.064C1831.8 255.451 1831.81 256.084 1831.42 256.478Z" fill="white"/>
  <path fill-rule="evenodd" clip-rule="evenodd" d="M835.248 559.225C835.762 559.427 836.015 560.007 835.814 560.522L834.021 565.091L838.591 566.884C839.105 567.086 839.358 567.666 839.156 568.18C838.955 568.694 838.374 568.947 837.86 568.746L833.291 566.953L831.41 571.747C831.208 572.261 830.628 572.514 830.114 572.313C829.599 572.111 829.346 571.531 829.548 571.017L831.429 566.222L826.635 564.342C826.12 564.14 825.867 563.56 826.069 563.046C826.271 562.531 826.851 562.278 827.365 562.48L832.159 564.361L833.952 559.791C834.154 559.277 834.734 559.024 835.248 559.225Z" fill="white"/>
  <path fill-rule="evenodd" clip-rule="evenodd" d="M1874.77 758.084C1875.2 757.741 1875.83 757.813 1876.17 758.246L1879.22 762.093L1883.07 759.043C1883.5 758.7 1884.13 758.773 1884.47 759.205C1884.81 759.638 1884.74 760.267 1884.31 760.61L1880.46 763.66L1883.66 767.695C1884.01 768.128 1883.93 768.757 1883.5 769.1C1883.07 769.443 1882.44 769.371 1882.09 768.938L1878.9 764.902L1874.86 768.102C1874.43 768.445 1873.8 768.372 1873.46 767.939C1873.11 767.507 1873.18 766.878 1873.62 766.535L1877.65 763.335L1874.6 759.489C1874.26 759.056 1874.33 758.427 1874.77 758.084Z" fill="white"/>
  <path fill-rule="evenodd" clip-rule="evenodd" d="M12.1182 346.055C12.1072 345.503 12.5459 345.047 13.0981 345.036L18.0058 344.938L17.908 340.03C17.8969 339.478 18.3357 339.021 18.8878 339.01C19.44 338.999 19.8966 339.438 19.9076 339.99L20.0054 344.898L25.1542 344.795C25.7064 344.784 26.1629 345.223 26.1739 345.775C26.1849 346.327 25.7462 346.784 25.194 346.795L20.0452 346.897L20.1479 352.046C20.1589 352.598 19.7202 353.055 19.168 353.066C18.6158 353.077 18.1593 352.638 18.1483 352.086L18.0456 346.937L13.138 347.035C12.5858 347.046 12.1292 346.607 12.1182 346.055Z" fill="white"/>
  <path fill-rule="evenodd" clip-rule="evenodd" d="M1082.64 636.976C1083.16 637.155 1083.44 637.724 1083.26 638.246L1081.67 642.891L1086.32 644.48C1086.84 644.658 1087.12 645.227 1086.94 645.749C1086.76 646.272 1086.19 646.551 1085.67 646.372L1081.03 644.783L1079.36 649.656C1079.18 650.178 1078.61 650.457 1078.09 650.278C1077.57 650.099 1077.29 649.531 1077.47 649.008L1079.13 644.136L1074.26 642.469C1073.74 642.29 1073.46 641.721 1073.64 641.199C1073.82 640.676 1074.39 640.397 1074.91 640.576L1079.78 642.243L1081.37 637.599C1081.55 637.076 1082.12 636.798 1082.64 636.976Z" fill="white"/>
  <path fill-rule="evenodd" clip-rule="evenodd" d="M484.213 752.729C483.826 753.123 483.193 753.128 482.799 752.741L479.298 749.301L475.857 752.803C475.47 753.197 474.837 753.202 474.443 752.815C474.049 752.428 474.044 751.795 474.431 751.401L477.871 747.899L474.197 744.29C473.803 743.903 473.798 743.27 474.185 742.876C474.572 742.482 475.205 742.477 475.599 742.864L479.272 746.473L482.882 742.799C483.269 742.405 483.902 742.4 484.296 742.787C484.69 743.174 484.695 743.807 484.308 744.201L480.699 747.874L484.201 751.315C484.595 751.702 484.6 752.335 484.213 752.729Z" fill="white"/>
  <path fill-rule="evenodd" clip-rule="evenodd" d="M1332.18 680.891C1331.82 680.476 1331.86 679.844 1332.28 679.48L1335.97 676.247L1332.74 672.554C1332.37 672.138 1332.41 671.506 1332.83 671.142C1333.25 670.779 1333.88 670.821 1334.24 671.236L1337.47 674.93L1341.35 671.538C1341.76 671.174 1342.4 671.216 1342.76 671.631C1343.12 672.047 1343.08 672.679 1342.67 673.043L1338.79 676.435L1342.18 680.309C1342.55 680.725 1342.51 681.357 1342.09 681.721C1341.67 682.084 1341.04 682.042 1340.68 681.627L1337.29 677.752L1333.59 680.985C1333.18 681.349 1332.55 681.307 1332.18 680.891Z" fill="white"/>
  <path fill-rule="evenodd" clip-rule="evenodd" d="M256.812 648.82C257.354 648.715 257.879 649.068 257.985 649.611L258.924 654.429L263.742 653.489C264.284 653.384 264.809 653.738 264.915 654.28C265.02 654.822 264.667 655.347 264.125 655.452L259.307 656.392L260.292 661.446C260.397 661.988 260.044 662.513 259.502 662.619C258.96 662.725 258.434 662.371 258.329 661.829L257.344 656.774L252.289 657.759C251.747 657.865 251.222 657.511 251.116 656.969C251.01 656.427 251.364 655.902 251.906 655.796L256.961 654.811L256.022 649.993C255.916 649.451 256.27 648.926 256.812 648.82Z" fill="white"/>
  <path fill-rule="evenodd" clip-rule="evenodd" d="M1312.77 688.098C1313.31 688.221 1313.65 688.756 1313.53 689.295L1312.44 694.082L1317.22 695.169C1317.76 695.292 1318.1 695.827 1317.98 696.366C1317.86 696.905 1317.32 697.242 1316.78 697.12L1311.99 696.032L1310.85 701.054C1310.73 701.592 1310.2 701.93 1309.66 701.807C1309.12 701.685 1308.78 701.149 1308.9 700.611L1310.04 695.589L1305.02 694.448C1304.48 694.325 1304.15 693.79 1304.27 693.251C1304.39 692.712 1304.93 692.375 1305.47 692.497L1310.49 693.638L1311.58 688.852C1311.7 688.313 1312.23 687.976 1312.77 688.098Z" fill="white"/>
  <path fill-rule="evenodd" clip-rule="evenodd" d="M815.51 331.968C815.789 331.491 816.401 331.331 816.878 331.609L821.117 334.085L823.593 329.847C823.871 329.37 824.484 329.209 824.961 329.488C825.438 329.767 825.598 330.379 825.32 330.856L822.844 335.094L827.29 337.692C827.767 337.971 827.928 338.583 827.649 339.06C827.371 339.537 826.758 339.697 826.281 339.419L821.835 336.821L819.237 341.268C818.958 341.745 818.346 341.905 817.869 341.627C817.392 341.348 817.231 340.736 817.51 340.259L820.108 335.812L815.869 333.336C815.393 333.057 815.232 332.445 815.51 331.968Z" fill="white"/>
</svg>
