<svg width="24" height="25" viewBox="0 0 24 25" fill="none" xmlns="http://www.w3.org/2000/svg">
  <path fill-rule="evenodd" clip-rule="evenodd" d="M18.7499 5.01722V6.50014H22.1271C23.1598 6.50014 23.9998 7.34088 23.9998 8.37362V18.8773C23.9998 19.91 23.1598 20.75 22.1271 20.75H18.7499V23.75C18.7499 24.1648 18.4146 24.5 17.9999 24.5H5.99995C5.58596 24.5 5.24996 24.1648 5.24996 23.75V20.75H1.87349C0.840744 20.75 0 19.91 0 18.8773V8.37362C0 7.34088 0.840744 6.50014 1.87349 6.50014H5.24996V1.25018C5.24996 0.836181 5.58596 0.500183 5.99995 0.500183H14.2333C14.3207 0.498254 14.4084 0.511562 14.4921 0.540107C14.6074 0.579397 14.71 0.64597 14.7923 0.732113L18.5179 4.45765C18.5769 4.51409 18.6268 4.58009 18.665 4.65315C18.7244 4.76675 18.7527 4.89227 18.7499 5.01722ZM14.9999 3.06066V4.25015H16.1894L14.9999 3.06066ZM17.9999 11.7501H5.99995H4.49997C4.08597 11.7501 3.74997 11.4141 3.74997 11.0001C3.74997 10.5861 4.08597 10.2501 4.49997 10.2501H5.24996V8.00013H1.87349C1.66724 8.00013 1.49999 8.16737 1.49999 8.37362V18.8773C1.49999 19.0828 1.66724 19.25 1.87349 19.25H5.24996V17.7501H4.49997C4.08597 17.7501 3.74997 17.4148 3.74997 17.0001C3.74997 16.5853 4.08597 16.2501 4.49997 16.2501H5.99995H17.9999H19.4999C19.9146 16.2501 20.2498 16.5853 20.2498 17.0001C20.2498 17.4148 19.9146 17.7501 19.4999 17.7501H18.7499V19.25H22.1271C22.3326 19.25 22.4998 19.0828 22.4998 18.8773V8.37362C22.4998 8.16737 22.3326 8.00013 22.1271 8.00013H18.7499V10.2501H19.4999C19.9146 10.2501 20.2498 10.5861 20.2498 11.0001C20.2498 11.4141 19.9146 11.7501 19.4999 11.7501H17.9999ZM17.2499 10.2501V5.75014H14.2499C13.8351 5.75014 13.4999 5.41415 13.4999 5.00015V2.00017H6.74995V10.2501H17.2499ZM17.2499 17.7501H6.74995V20V23H17.2499V17.7501ZM14.9999 21.0905H8.99993C8.58593 21.0905 8.24994 20.7553 8.24994 20.3405C8.24994 19.9258 8.58593 19.5905 8.99993 19.5905H14.9999C15.4146 19.5905 15.7499 19.9258 15.7499 20.3405C15.7499 20.7553 15.4146 21.0905 14.9999 21.0905ZM4.49997 14.75C4.30497 14.75 4.10997 14.6675 3.96747 14.5325C3.83247 14.39 3.74997 14.2025 3.74997 14C3.74997 13.7968 3.83247 13.6093 3.96747 13.4675C4.25247 13.1901 4.74746 13.1901 5.03246 13.4675C5.16746 13.6093 5.24996 13.805 5.24996 14C5.24996 14.195 5.16746 14.39 5.03246 14.5325C4.88996 14.6675 4.69496 14.75 4.49997 14.75Z" fill="white"/>
</svg>
