<svg width="32" height="25" viewBox="0 0 32 25" fill="none" xmlns="http://www.w3.org/2000/svg">
  <path fill-rule="evenodd" clip-rule="evenodd" d="M12.7366 24.4646C12.8256 24.4886 12.9136 24.4996 13.0006 24.4996C13.4406 24.4996 13.8436 24.2076 13.9646 23.7626L19.9646 1.76264C20.1106 1.22964 19.7956 0.680643 19.2626 0.534643C18.7336 0.392643 18.1806 0.702643 18.0346 1.23664L12.0346 23.2366C11.8896 23.7696 12.2036 24.3186 12.7366 24.4646ZM7.25554 3.8337L0.291026 11.624C-0.0467561 11.963 -0.0950526 12.4938 0.170002 12.887C0.194209 12.9231 0.220994 12.9578 0.250342 12.9911L7.24059 21.1497C7.43859 21.3817 7.71859 21.4997 8.00059 21.4997C8.23059 21.4997 8.46259 21.4207 8.65059 21.2597C9.07059 20.8997 9.11959 20.2687 8.75959 19.8487L2.32983 12.3442L8.74654 5.1667C9.11454 4.7547 9.07954 4.1227 8.66754 3.7547C8.25554 3.3867 7.62454 3.4227 7.25554 3.8337ZM23.3336 21.2446C23.5246 21.4156 23.7636 21.4996 24.0006 21.4996C24.2746 21.4996 24.5486 21.3876 24.7456 21.1666L31.7375 13.3458C31.8098 13.267 31.8675 13.1789 31.9101 13.0853C31.9136 13.0777 31.917 13.0701 31.9202 13.0624C32.0724 12.7058 32.0064 12.2825 31.7334 11.9891L24.7596 3.84967C24.3996 3.42967 23.7686 3.38267 23.3496 3.74067C22.9296 4.10067 22.8816 4.73167 23.2406 5.15067L29.6717 12.6567L23.2556 19.8326C22.8876 20.2446 22.9226 20.8766 23.3336 21.2446Z" fill="white"/>
</svg>
