<svg width="22" height="22" viewBox="0 0 22 22" fill="none" xmlns="http://www.w3.org/2000/svg">
  <path fill-rule="evenodd" clip-rule="evenodd" d="M0 4.8125C0 5.192 0.308 5.5 0.6875 5.5H4.125V17.1875V19.25C4.125 20.7666 5.35838 22 6.875 22H19.25C20.7666 22 22 20.7666 22 19.25V17.1875C22 16.8073 21.6927 16.5 21.3125 16.5H19.25V2.75C19.25 1.23337 18.0166 0 16.5 0H2.75C1.23337 0 0 1.23337 0 2.75V4.8125ZM17.875 2.75C17.875 1.99169 17.2583 1.375 16.5 1.375H5.13107C5.36564 1.7797 5.5 2.24942 5.5 2.75V4.8125V17.1875V19.25C5.5 20.0083 6.11669 20.625 6.875 20.625C7.63331 20.625 8.25 20.0083 8.25 19.25V17.1875C8.25 16.8073 8.558 16.5 8.9375 16.5H17.875V2.75ZM9.625 17.875H18.5625H20.625V19.25C20.625 20.0083 20.0083 20.625 19.25 20.625H9.25607C9.49064 20.2203 9.625 19.7506 9.625 19.25V17.875ZM1.375 2.75C1.375 1.99169 1.99169 1.375 2.75 1.375C3.50831 1.375 4.125 1.99169 4.125 2.75V4.125H1.375V2.75ZM15.8125 5.5H7.5625C7.183 5.5 6.875 5.192 6.875 4.8125C6.875 4.433 7.183 4.125 7.5625 4.125H15.8125C16.1927 4.125 16.5 4.433 16.5 4.8125C16.5 5.192 16.1927 5.5 15.8125 5.5ZM7.5625 8.25H15.8125C16.1927 8.25 16.5 7.942 16.5 7.5625C16.5 7.183 16.1927 6.875 15.8125 6.875H7.5625C7.183 6.875 6.875 7.183 6.875 7.5625C6.875 7.942 7.183 8.25 7.5625 8.25ZM15.8125 11H7.5625C7.183 11 6.875 10.692 6.875 10.3125C6.875 9.933 7.183 9.625 7.5625 9.625H15.8125C16.1927 9.625 16.5 9.933 16.5 10.3125C16.5 10.692 16.1927 11 15.8125 11ZM7.5625 13.75H11.6875C12.0677 13.75 12.375 13.4427 12.375 13.0625C12.375 12.6823 12.0677 12.375 11.6875 12.375H7.5625C7.183 12.375 6.875 12.6823 6.875 13.0625C6.875 13.4427 7.183 13.75 7.5625 13.75Z" fill="black"/>
</svg>
