<svg width="13" height="20" viewBox="0 0 13 20" fill="none" xmlns="http://www.w3.org/2000/svg">
  <path fill-rule="evenodd" clip-rule="evenodd" d="M6.28479 2.14158C5.43898 2.14158 4.62781 2.47934 4.02973 3.08057C3.43165 3.6818 3.09564 4.49725 3.09564 5.34752V6.07785H0.965235V5.34752C0.965235 3.92928 1.52568 2.56912 2.52329 1.56626C3.5209 0.563403 4.87395 0 6.28479 0C7.69562 0 9.04868 0.563403 10.0463 1.56626C11.0439 2.56912 11.6043 3.92928 11.6043 5.34752V10.3707C12.2009 11.3357 12.5455 12.4746 12.5455 13.6944C12.5455 17.1769 9.73706 20 6.27273 20C2.8084 20 0 17.1769 0 13.6944C0 10.2119 2.8084 7.38877 6.27273 7.38877C7.44213 7.38877 8.5368 7.71045 9.47393 8.27058V5.34752C9.47393 4.49725 9.13793 3.6818 8.53984 3.08057C7.94176 2.47934 7.13059 2.14158 6.28479 2.14158ZM6.27273 9.53034C3.98499 9.53034 2.13041 11.3946 2.13041 13.6944C2.13041 15.9941 3.98499 17.8584 6.27273 17.8584C8.56047 17.8584 10.415 15.9941 10.415 13.6944C10.415 11.3946 8.56047 9.53034 6.27273 9.53034Z" fill="#F47115"/>
  <path d="M6.29321 15.4802C7.26388 15.4802 8.05077 14.6892 8.05077 13.7134C8.05077 12.7376 7.26388 11.9466 6.29321 11.9466C5.32254 11.9466 4.53566 12.7376 4.53566 13.7134C4.53566 14.6892 5.32254 15.4802 6.29321 15.4802Z" fill="#F47115"/>
</svg>
