<svg width="16" height="22" viewBox="0 0 16 22" fill="none" xmlns="http://www.w3.org/2000/svg">
  <path fill-rule="evenodd" clip-rule="evenodd" d="M2.75 4.8125V8.9375H1.71531C0.769312 8.9375 0 9.70681 0 10.6528V20.2806C0 21.2286 0.771375 22 1.71875 22H13.4056C14.3536 22 15.125 21.2286 15.125 20.2806V10.6528C15.125 9.70681 14.3557 8.9375 13.4097 8.9375H4.125V4.8125C4.125 2.91706 5.66706 1.375 7.5625 1.375C9.45794 1.375 11 2.91706 11 4.8125V6.1875C11 6.567 11.3073 6.875 11.6875 6.875C12.0677 6.875 12.375 6.567 12.375 6.1875V4.8125C12.375 2.15875 10.2156 0 7.5625 0C4.90875 0 2.75 2.15875 2.75 4.8125ZM1.71531 10.3125C1.52762 10.3125 1.375 10.4651 1.375 10.6528V20.2806C1.375 20.4703 1.52969 20.625 1.71875 20.625H13.4056C13.5953 20.625 13.75 20.4703 13.75 20.2806V10.6528C13.75 10.4651 13.5974 10.3125 13.4097 10.3125H1.71531ZM6.875 17.1875C6.875 17.5677 7.183 17.875 7.5625 17.875C7.942 17.875 8.25 17.5677 8.25 17.1875V13.75C8.25 13.3698 7.942 13.0625 7.5625 13.0625C7.183 13.0625 6.875 13.3698 6.875 13.75V17.1875Z" fill="black"/>
</svg>
