<svg width="30" height="25" viewBox="0 0 30 25" fill="none" xmlns="http://www.w3.org/2000/svg">
  <path fill-rule="evenodd" clip-rule="evenodd" d="M1.57592 9.07816L2.94589 10.4481C3.92217 4.80549 8.85311 0.5 14.7704 0.5C18.2125 0.5 21.4922 1.98062 23.7704 4.56246C24.1073 4.94462 24.0713 5.528 23.6891 5.86585C23.3079 6.20277 22.7245 6.16677 22.3857 5.78462C20.4584 3.59877 17.6817 2.34615 14.7704 2.34615C9.70014 2.34615 5.48545 6.08244 4.73523 10.9461L6.97131 9.8277C7.42823 9.5997 7.98208 9.78431 8.21008 10.2403C8.43808 10.6963 8.25346 11.2511 7.79746 11.4791L4.14234 13.3066C4.01456 13.3779 3.86813 13.4198 3.71225 13.4229L3.69346 13.4231C3.59256 13.4231 3.49231 13.4066 3.39684 13.3743C3.26521 13.3298 3.14264 13.2553 3.03992 13.1526L0.270692 10.3834C-0.0902308 10.0225 -0.0902308 9.43908 0.270692 9.07816C0.631615 8.71724 1.215 8.71724 1.57592 9.07816ZM5.77034 20.4385C8.04942 23.0194 11.3291 24.5 14.7703 24.5C20.6873 24.5 25.6181 20.1949 26.5947 14.5526L27.964 15.9218C28.144 16.1018 28.3803 16.1923 28.6166 16.1923C28.8529 16.1923 29.0892 16.1018 29.2692 15.9228C29.6301 15.5618 29.6301 14.9785 29.2692 14.6175L26.5271 11.8754C26.3584 11.6919 26.1165 11.5769 25.8473 11.5769C25.6855 11.5769 25.5336 11.6185 25.4015 11.6914L21.7424 13.5209C21.2864 13.7489 21.1018 14.3037 21.3298 14.7597C21.5587 15.2157 22.1135 15.3985 22.5686 15.1723L24.8055 14.0535C24.0555 18.9173 19.8407 22.6538 14.7703 22.6538C11.859 22.6538 9.08326 21.4012 7.15403 19.2163C6.81711 18.8351 6.23372 18.7972 5.85157 19.1351C5.46942 19.472 5.43249 20.0563 5.77034 20.4385Z" fill="#2B2B2B"/>
</svg>
