<svg width="22" height="22" viewBox="0 0 22 22" fill="none" xmlns="http://www.w3.org/2000/svg">
  <path fill-rule="evenodd" clip-rule="evenodd" d="M10.3125 21.3125C10.3125 21.6927 10.6205 22 11 22C11.3795 22 11.6875 21.6927 11.6875 21.3125V0.6875C11.6875 0.308 11.3795 0 11 0C10.6205 0 10.3125 0.308 10.3125 0.6875V21.3125ZM8.25 19.25H1.71737C0.770687 19.25 0 18.4793 0 17.5326V4.455C0 3.51519 0.765188 2.75 1.705 2.75H8.18744C8.56694 2.75 8.87494 3.058 8.87494 3.4375C8.87494 3.817 8.56694 4.125 8.18744 4.125H1.705C1.52281 4.125 1.375 4.27281 1.375 4.455V17.5319C1.375 17.7176 1.53175 17.875 1.71737 17.875H8.25C8.6295 17.875 8.9375 18.1823 8.9375 18.5625C8.9375 18.9427 8.6295 19.25 8.25 19.25ZM19.3118 18.5625C19.3118 18.1844 19.6211 17.875 19.9993 17.875C20.3774 17.875 20.6868 18.1844 20.6868 18.5625C20.6868 18.9406 20.3774 19.25 19.9993 19.25C19.6211 19.25 19.3118 18.9406 19.3118 18.5625ZM17.2493 18.5625C17.2493 18.1844 17.5586 17.875 17.9368 17.875C18.3149 17.875 18.6243 18.1844 18.6243 18.5625C18.6243 18.9406 18.3149 19.25 17.9368 19.25C17.5586 19.25 17.2493 18.9406 17.2493 18.5625ZM15.1868 18.5625C15.1868 18.1844 15.4961 17.875 15.8743 17.875C16.2524 17.875 16.5618 18.1844 16.5618 18.5625C16.5618 18.9406 16.2524 19.25 15.8743 19.25C15.4961 19.25 15.1868 18.9406 15.1868 18.5625ZM13.1243 18.5625C13.1243 18.1844 13.4336 17.875 13.8118 17.875C14.1899 17.875 14.4993 18.1844 14.4993 18.5625C14.4993 18.9406 14.1899 19.25 13.8118 19.25C13.4336 19.25 13.1243 18.9406 13.1243 18.5625ZM20.6249 17.3731C20.6249 16.995 20.9343 16.6856 21.3124 16.6856C21.6905 16.6856 21.9999 16.995 21.9999 17.3731C21.9999 17.7588 21.6905 18.0606 21.3124 18.0606C20.9343 18.0606 20.6249 17.7581 20.6249 17.3731ZM20.6249 15.3106C20.6249 14.9325 20.9343 14.6231 21.3124 14.6231C21.6905 14.6231 21.9999 14.9325 21.9999 15.3106C21.9999 15.6963 21.6905 15.9981 21.3124 15.9981C20.9343 15.9981 20.6249 15.6956 20.6249 15.3106ZM20.6249 13.2481C20.6249 12.87 20.9343 12.5606 21.3124 12.5606C21.6905 12.5606 21.9999 12.87 21.9999 13.2481C21.9999 13.6338 21.6905 13.9356 21.3124 13.9356C20.9343 13.9356 20.6249 13.6331 20.6249 13.2481ZM20.6249 11.1925C20.6249 10.8075 20.9343 10.4981 21.3124 10.4981C21.6905 10.4981 21.9999 10.8075 21.9999 11.1925C21.9999 11.5706 21.6905 11.8731 21.3124 11.8731C20.9343 11.8731 20.6249 11.5706 20.6249 11.1925ZM20.6249 9.12313C20.6249 8.745 20.9343 8.4425 21.3124 8.4425C21.6905 8.4425 21.9999 8.745 21.9999 9.12313C21.9999 9.50813 21.6905 9.8175 21.3124 9.8175C20.9343 9.8175 20.6249 9.50813 20.6249 9.12313ZM20.6249 7.0675C20.6249 6.6825 20.9343 6.37313 21.3124 6.37313C21.6905 6.37313 21.9999 6.6825 21.9999 7.0675C21.9999 7.44562 21.6905 7.74813 21.3124 7.74813C20.9343 7.74813 20.6249 7.44562 20.6249 7.0675ZM20.6249 4.99813C20.6249 4.62 20.9343 4.3175 21.3124 4.3175C21.6905 4.3175 21.9999 4.62 21.9999 4.99813C21.9999 5.38312 21.6905 5.6925 21.3124 5.6925C20.9343 5.6925 20.6249 5.38312 20.6249 4.99813ZM20.3155 4.125H20.3086C19.9305 4.09062 19.6555 3.76063 19.683 3.3825C19.7174 3.00437 20.0474 2.7225 20.4324 2.75688H20.4255C20.8036 2.79125 21.0855 3.12125 21.058 3.49938C21.0236 3.85688 20.728 4.13188 20.3705 4.13188C20.359 4.13188 20.3473 4.12974 20.337 4.12785C20.3287 4.12635 20.3213 4.125 20.3155 4.125ZM17.6205 3.4375C17.6205 3.05938 17.9299 2.75 18.308 2.75C18.6861 2.75 18.9955 3.05938 18.9955 3.4375C18.9955 3.81562 18.6861 4.125 18.308 4.125C17.9299 4.125 17.6205 3.81562 17.6205 3.4375ZM15.558 3.4375C15.558 3.05938 15.8674 2.75 16.2455 2.75C16.6236 2.75 16.933 3.05938 16.933 3.4375C16.933 3.81562 16.6236 4.125 16.2455 4.125C15.8674 4.125 15.558 3.81562 15.558 3.4375ZM13.4955 3.4375C13.4955 3.05938 13.8049 2.75 14.183 2.75C14.5611 2.75 14.8705 3.05938 14.8705 3.4375C14.8705 3.81562 14.5611 4.125 14.183 4.125C13.8049 4.125 13.4955 3.81562 13.4955 3.4375Z" fill="black"/>
</svg>
