<svg width="125" height="125" viewBox="0 0 125 125" fill="none" xmlns="http://www.w3.org/2000/svg">
<circle cx="62.5" cy="62.5" r="60" fill="black" stroke="black" stroke-width="5"/>
<path d="M56.293 79.9238V78.1533C56.293 74.2295 56.8831 71.0234 58.0635 68.5352C59.2757 66.0469 61.4928 63.3831 64.7148 60.5439L69.0693 56.7637C71.3662 54.8177 73.0091 52.8877 73.998 50.9736C74.987 49.0596 75.4814 46.8584 75.4814 44.3701C75.4814 40.3187 74.1416 37.0967 71.4619 34.7041C68.8141 32.3115 65.321 31.1152 60.9824 31.1152C58.4622 31.1152 56.1016 31.4023 53.9004 31.9766C51.6992 32.5189 49.3226 33.4121 46.7705 34.6562L45 30.8281C48.5091 29.2969 51.444 28.276 53.8047 27.7656C56.1973 27.2552 58.6536 27 61.1738 27C67.0117 27 71.6055 28.5791 74.9551 31.7373C78.3047 34.8636 79.9795 39.1702 79.9795 44.6572C79.9795 46.8265 79.6924 48.7246 79.1182 50.3516C78.5439 51.9785 77.7305 53.4938 76.6777 54.8975C75.6569 56.2692 74.4128 57.609 72.9453 58.917C71.4779 60.193 69.8509 61.5807 68.0645 63.0801C66.0228 64.8027 64.4437 66.3818 63.3271 67.8174C62.2425 69.221 61.445 70.7044 60.9346 72.2676C60.4561 73.8307 60.2168 76.1595 60.2168 79.2539V79.9238H56.293ZM54.7139 94.2314C54.7139 91.1051 55.9899 89.542 58.542 89.542C61.1579 89.542 62.4658 91.1051 62.4658 94.2314C62.4658 97.3577 61.1579 98.9209 58.542 98.9209C55.9899 98.9209 54.7139 97.3577 54.7139 94.2314Z" fill="white"/>
</svg>
