<svg width="125" height="125" viewBox="0 0 125 125" fill="none" xmlns="http://www.w3.org/2000/svg">
<path fill-rule="evenodd" clip-rule="evenodd" d="M120 62.5C120 94.2564 94.2564 120 62.5 120C30.7436 120 5 94.2564 5 62.5C5 30.7436 30.7436 5 62.5 5C94.2564 5 120 30.7436 120 62.5ZM125 62.5C125 97.0178 97.0178 125 62.5 125C27.9822 125 0 97.0178 0 62.5C0 27.9822 27.9822 0 62.5 0C97.0178 0 125 27.9822 125 62.5ZM56.293 78.1533V79.9238H60.2168V79.2539C60.2168 76.1595 60.4561 73.8307 60.9346 72.2676C61.445 70.7044 62.2425 69.221 63.3271 67.8174C64.4437 66.3818 66.0228 64.8027 68.0645 63.0801C69.8509 61.5807 71.4779 60.193 72.9453 58.917C74.4128 57.6091 75.6569 56.2692 76.6777 54.8975C77.7305 53.4938 78.5439 51.9785 79.1182 50.3516C79.6924 48.7246 79.9795 46.8265 79.9795 44.6572C79.9795 39.1702 78.3047 34.8636 74.9551 31.7373C71.6055 28.5791 67.0117 27 61.1738 27C58.6536 27 56.1973 27.2552 53.8047 27.7656C51.444 28.276 48.5091 29.2969 45 30.8281L46.7705 34.6562C49.3226 33.4121 51.6992 32.5189 53.9004 31.9766C56.1016 31.4023 58.4622 31.1152 60.9824 31.1152C65.321 31.1152 68.8141 32.3115 71.4619 34.7041C74.1416 37.0967 75.4814 40.3187 75.4814 44.3701C75.4814 46.8584 74.987 49.0596 73.998 50.9736C73.0091 52.8877 71.3662 54.8177 69.0693 56.7637L64.7148 60.5439C61.4928 63.3831 59.2757 66.0469 58.0635 68.5352C56.8831 71.0234 56.293 74.2295 56.293 78.1533ZM58.542 89.542C55.9899 89.542 54.7139 91.1051 54.7139 94.2314C54.7139 97.3577 55.9899 98.9209 58.542 98.9209C61.1579 98.9209 62.4658 97.3577 62.4658 94.2314C62.4658 91.1051 61.1579 89.542 58.542 89.542Z" fill="black"/>
</svg>
